<?xml version="1.0" encoding="UTF-8"?>
<svg xmlns="http://www.w3.org/2000/svg" version="1.1" viewBox="0 0 1024 1024">
  <defs>
    <style>
      .cls-1 {
        fill: #07283d;
      }

      .cls-2 {
        stroke-width: 2px;
      }

      .cls-2, .cls-3 {
        fill: #72cff5;
        stroke: #07283d;
        stroke-miterlimit: 10;
      }

      .cls-3 {
        stroke-width: 4px;
      }

      .cls-4 {
        fill: #fff;
      }

      .cls-5 {
        fill: #f2f2f2;
      }

      .cls-6 {
        fill: #202020;
      }

      .cls-7 {
        fill: #040404;
      }

      .cls-8 {
        fill: #4c4e4f;
      }
    </style>
  </defs>
  <!-- Generator: Adobe Illustrator 28.6.0, SVG Export Plug-In . SVG Version: 1.2.0 Build 709)  -->
  <g>
    <g id="Layer_1">
      <g>
        <path class="cls-2" d="M941.68,327.83c-.09.08-.18.18-.27.31.07.13.15.03.27-.31Z"/>
        <path class="cls-2" d="M942.4,328.79c.18-2.12.82-4.02.34-6.7.28-1.34.78,1.96.86-1.23-.59-2.82-1.54,1.58-1.84,6.7-.04.13-.06.19-.09.28.27-.24.52-.13.72.96Z"/>
        <path class="cls-2" d="M91.87,224.47c-.12.03-.24.06-.4.1.09,0,.23-.05.4-.1Z"/>
        <path class="cls-2" d="M829,177.17c.28.09.52.15.71.19-.33-.11-.55-.16-.71-.19Z"/>
        <path class="cls-2" d="M942.73,332.42c-.08-1.76-.19-2.9-.32-3.62-.09,1.1-.07,2.26.32,3.62Z"/>
        <path class="cls-2" d="M917.34,221.8c-.5-.28-1.42-.73-3.04-1.44,1.26.65,2.24,1.11,3.04,1.44Z"/>
        <path class="cls-2" d="M69.86,245.99c0,.17,0,.35,0,.55,0-.05.01-.09.02-.15,0-.13-.02-.27-.02-.4Z"/>
        <path class="cls-3" d="M68.8,253.93c-.03,2.48.69,8.94,1.06,9.88.06.15.08.3.08.47-.61,10.62-.08,27.81.34,34.95-.17-1.34-.4-1.48-.17-.2,0,.05.01.1.02.14.15,3.42.71,7.22.38,7.98-.06.14-.06.3-.05.45.23,3.22-.56,3.16-.62,8.47-.04.03-.01.09.05.14.29.26.47.62.44,1.01-.73,8.98.8,19.99.16,30.44-.07-.9-.49-2.15-.73-3.01.38,8.51.69,16.6,1.61,24.25-.34-.81-.67-.57-.86-2.59.01,5.91.21,12.78.91,15.53.35-4.02-.42-.27-.38-2.99.67-4.25,1.37,3.36,1.19,7.26l-.16.11c.02,5.92.43,6.17.44,12.09-.43,3.55-.21-3.08-.68-1.67-1.18,1.35-.79,12.75-.9,14.55,0,.1,0,.19.01.28.25,1.4.45,3.28.77,3.05.32,4.63-.71,2.12-.65,5.33l2.11,11.96v.71c-.21.26-.51,1.53-.8,1.76-.25.21-.47.45-.45.78.19,4.88.71,8.63,1.24,12.02,0,.06.01.12.01.17v19.84c0,.29-.08.61-.31.79-.2.15-.43.77-.65.99-.24.24-.42.52-.41.85.06,1.57.08,3.48.06,5.57-.05,2.99-.11,6.31-.16,9.57-.01.63.5,1.16,1.13,1.17,3.79.06,7.43.12,10.56.17-6.14-1.02,9.94-.62,12.23-1.31.11-.03.22-.06.34-.06h6.63c1.9.25.41.73,3.23.87,11.75-.39,22.91-.11,33.6-.22,0,0,.15.13-.43.2,9.61-.29,25.01-.03,34.88-.85h.59c-.25.18.31.36-2.02.5,5.17.17,5.74-.13,6.42-.41.14-.06.29-.09.44-.09h6.27s-1.83.32-1.83.32c7.57-.47,14.69.43,23.33-.32.3.27-1.61.35-2.84.49,6.52-.18,13.71-.14,19.79-.49h4.07c-.17.2-1.31.38-3.47.54,5.78.28,7.66-.33,11.11-.54.03,0,.06,0,.08,0h4.81c2.12.08,5.47.45,4.23.46,2.43-.3,8.22-.38,12.91-.46h5.98c.06,0,.11,0,.16.01,1.33.22,3.82.34,7.5.62.03,0,.06,0,.09,0,37.55-.01,75.94.12,113.34-.64h5.39c5.09.88-9.44.56-5.42,1.22-.29-.85,6.6-.24,18.44-.53l.48.13c5.05-.18,7.89.36,13.34.1l-.19-.22c5.64-.54,12.49,1.02,15.67.08.15-.05.31-.06.47-.04l4.03.55c.11.01.22.01.33,0,5.57-.92,8.96.32,15.88-.48l-.8.17c9.38.42,19.48-1.02,23.2-.3.07.01.14.02.21.02,6.34-.11,13.35-.26,16.78-.69.04,0,.08,0,.13,0h2.73c-.04.22-.72.45-1.45.6,21.62-.27,45.06-.25,66.54-.6h166.11c19.49.31,38.96.38,55.65,0h21.84c.19,0,.36.05.53.13.21.1.62.17,1.6.14,3.08-.12,6.25-.21,9.44-.28h120.93c.63,0,1.15-.51,1.15-1.15v-21.83s.21,1.62.21,1.62c-.17-2.13.04-4.53.42-4.98.17-.2.32-.42.29-.68l-.37-4.54.74.27c-.26-9.01.48-15.26-.11-24.59l-.75,3.5c-.02-2.73-.28-5.48-.43-8.18,0-.02,0-.05,0-.07v-4.85s0-.04,0-.06c.05-.94.09-1.89.26-2.8.27,2.47.65.7,1.06.64-.13-1.25-.43-2.66-.31-4.17l1.28,2.51c-1.69-2.4-.62-14.84-.89-17.29l.23.78c.54-8.12-.71,1.43-.73-4.05.2-4.65,1.36-1.8,1.89-5.98,0-.06.01-.11.01-.17-.05-8.22-1-22.24-.03-31.42,0-.05,0-.09,0-.14-.22-7.3-.67-15.35-1.25-21.93,0-.03,0-.07,0-.11,0-5.97,1.13-.55.84-4.94-.03-.41.12-.85.46-1.08.27-.18.53-.64.78-.99-.49-.91.08-12.28-1.05-7.03.25-9.54.36-20.3.11-30.35.08,3.34.89,4.23,1.29,1.41-.68-4.02-1.11-10.64-1.08-17.81,0-.69-.57-1.42-1.24-1.25-.1.03-.21-.02-.35-.17-.13-1.17-.45-3.03-.45-4.98,0-.29.11-.57.31-.77.16-.16.32-.31.48-.49.71-.77,2-.28,2,.77,0,1.62.08,2.43.6,1.1,1.06,3.28,1.14,16.46.52,19.9-.02.14-.03.28,0,.41.99,5.65.28-3.42.96-4.28.13-.16.26-.33.25-.53-.11-5.38-.61-8.29-.81-16.25,0-.37-.36-.46-.73-.51-.12-.02-.25-.55-.43-2.28-1.2-8.39.85-10.49.9-12.6.09,1.23.21,2.9.31,4.14.4-5.55-.39-7.5-.32-13.38,1.55-1.61.18,9.4,1.12,11.56l1.07-4.11c.02-.09.04-.19.04-.28.07-4.4-.25-5.01-.53-5.65-.14-.33-.28-.66-.35-1.5-.04-.42-.06-.96-.06-1.7.02-1.16.04-2.61.08-4.45l.55,2.05-.12-3.95c-.01-.43-.27-.82-.66-1l-6.22-2.92c-.55.13.51,1.21,4.75,3.53.38.21.62.61.6,1.05-.04,1.15-.05,2.5-.03,4.06-.39-1.46-.59-2.59-.68-3.78-.03-.41-.28-.76-.65-.94-.68-.33-1.36-.68-2.11-1.07-.9-.49-1.91-1.03-3.08-1.65-1.56-.86-3.58-1.95-6.54-3.33-3.16-.78,3.62,1.73,3.36,2.38.43.93-5.39-1.94-9.7-3.95-6.94-3.45-3.08-2.39-5.58-4.16,1.22.49,5.51,2.53,6.01,3.06l.3.26c6.47,2.59,1.13-.69,1.2-1.17.05-.37-.3-.69-.64-.86-3.21-1.65-4.23-1.68-6.17-2.35-.27-.09-.58-.14-.84-.03-.18.08-.79,0-.96.1-.26.15-.6.11-.89.02-10.76-3.66-5.89-4.49-15.52-9.12-.28-.14-.6-.1-.91-.04-1.27.25-9.86-3.48-10.21-2.79-.25.5-1,.5-1.51.28-1.4-.59-2.83-1.23-4.15-1.88-.31-.15-.54-.44-.6-.78-.09-.5-4.22-2.57.31-1.03l-3.98-1.99,6.63,2.18s-.06-.03-.08-.05c-11.47-7.52-23.99-12.53-36.63-18.75,2.1.59,4.19,1.18,6.29,1.77-6.72-2.67-13.45-5.33-20.17-8,2.08.66,4.16,1.32,6.25,1.98-10.17-5.78-20.79-11.08-31.76-15.84,3.22,1.89,6.43,3.79,9.64,5.68-16.38-8.36-32.76-16.73-49.15-25.09-11.27-5.05-22.53-10.1-33.79-15.16,2.48.9,4.95,1.8,7.43,2.7-8.67-2.76-.35-.7-9.02-3.46,4.54.93-2.38-2.13-11.27-3.24-.02-.01-.04-.02-.06-.04-1.09-.68.07-1.99,1.33-1.72,1.47.32-5.47-2.32-4-2-4-2-21.22-11.77-29.29-15.74-13.95-6.87-27.9-13.73-41.85-20.6-22.82-11.23-45.48-24.23-69.25-33.82-.08-.03-.16-.07-.23-.12l-2.51-1.78c-.22-.16-.48-.23-.75-.21l-.37.03c-.19.01-.37-.02-.55-.09-4.67-2.03-10.28-4.92-10.59-5.79-.09-.25-.33-.42-.58-.52-1.81-.73-3.19-1.24-1.09.07-4.74-2.95-18.62-9.85-27.94-14.15,4.17,2.33,3.63,2.36,3.64,3-1.86.11-1.94-1.09-5.57-2.41-.17-.06-.34-.16-.46-.3-.52-.62-3.22-2.31.9-.52-3.57-2.2-7.75-4.47-12.27-6.78-2.27-1.14-4.61-2.3-7-3.5-3.04-1.49-6.13-3-9.24-4.52-.32-.16-.7-.16-1.02,0-3.56,1.8-7.15,3.62-10.71,5.43-2.95,1.46-5.88,2.9-8.76,4.32-2.9,1.61-2.01,1.33-3.17,2.17-.08.05-.16.1-.25.14-10.24,4.04-21.38,10.7-32.03,15.53,2.58-.84.01,1.68-5.74,4.57-.03.02-.07.04-.1.06-5.73,3.7-3.21.39-9.08,2.77-.07.03-.13.06-.2.1-2.63,1.71-7.82,4.4-10.09,5.47l.1-.2c-3.22,2.07-8.57,5-12.94,6.77l.61-.37c-3.38,1.6-7.52,3.13-11,4.91-.12.06-.22.15-.32.24-1.48,1.41-9.01,4.8-11.25,6.45-.2.15-.43.26-.68.27-.08,0-.24.04-.59.15l.09.65-7.26,3.21c1.37-.96,1.56-1.35,3.43-2.48-7.79,3.39-2.17,1.73-5.92,3.97-4.97,2.97-5.06,2.33-7.77,3.38,1.97-1.33,3.94-1.8,5.18-2.54,2.52-1.77-2.59,1.03-3.51,1.19l-.35.12c-.93.55-1.2,1.4-4.85,3.06-3.03,1.44-9.48,4.82-10.47,4.8-.18,0-.35,0-.5.09-2.56,1.61-5.72,3.13-7.59,4.39,2.8-1.25,7.88-3.59,8.73-3.53-2.41,1.29-7.16,3.86-8.13,4.02l1.87-1.13c-1.87,1.13-9.2,4.53-5.08,3.19l-5.47,1.78c-.13.04-.25.11-.36.2-1.73,1.39-6.68,3.82-10.68,5.94-9.77,5.17-30.33,14.45-43.6,20.89,1.3-.87,2.59-1.75,3.89-2.62-28.53,14.52-57.05,29.04-85.58,43.57,1.54-.98,3.09-1.95,4.63-2.93-13.18,5.75-27.51,12.94-39.58,19.68-3.64,2.04-4.45,2.81-8.8,4.56.2-.4,1.97-1.32,3.21-2.07-6.69,3.04-11.65,5.99-17.13,9.13-.07.04-.15.07-.23.1-4.1,1.21-15.17,7.13-22.86,10.49-.08.03-.14.07-.21.13-3.37,2.6-10.86,5.19-11.99,6.6-.16.19-.37.32-.61.38-.26.07-.59.17-.84.25-.1.03-.2.08-.29.14-2.51,1.66-4.29,3.4-7.76,5.2l.63-1.22c.17-1.07-7.33,3.18-10.43,4.56-.13.06-.19.18-.29.29-.29.32-4.2,1.97-4.76,2.62l-.35.31-3.75,2.14c-3.28,1.75-3.41,1.93-3.75,2.2-.17.13-.39.29-1.08.67-.35.19-.81.44-1.44.77-.68.35-1.54.8-2.64,1.36-3.05,1.54-3.87,1.69-3.59,1.29.27-.39,1.79-1.4,3.02-1.95-1.24.52-2.5,1.08-3.75,1.66-.4.18-.66.57-.67,1.01-.03,1.37-.03,2.8,0,4.12.05,1.1.09,2.2.14,3.31.04.67.08,1.35.11,2.02,0-1.42.07-1.91.28-.57-.13.09-.2.47-.25.97.08,1.42.15,2.85.15,4.3-.02-.03-.03-.04-.05-.06-.06-1.57-.1-3.01-.12-4.09-.09.98-.09,2.46-.09,3.99-.08.15-.06.61-.01,1.26-.02,1.26-.06,2.43-.2,3.2l-.76-1.06ZM938.04,452.94c-.08.27-.15.39-.23.43v-6.25c.09.02.19,0,.3-.12-.13-1.23-.24-1.88-.3-2.62v-3.09c.67,1.62.85,9.63.23,11.65ZM937.81,403.2v-2.56c.05.16.1.33.15.49-.08.8-.12,1.46-.15,2.07ZM70.33,259.05c-.03-.8-.07-1.76-.11-2.8.1,1.06.15,2.05.11,2.8Z"/>
        <path class="cls-2" d="M69.74,344.65c-.02-.33-.03-.65-.04-.98-.21-.05-.13.37.04.98Z"/>
        <path class="cls-2" d="M938.02,463.48c.04.57.11,1.12.21,1.61l-.21-1.61Z"/>
        <path class="cls-2" d="M941.51,334.34c.23.78.49.52.53,2.23.29-1.34-.17-2.93-.21-4.61-.09.44-.48,2.21-.31,2.38Z"/>
        <path class="cls-2" d="M942.76,311.78c-.06-4.42-.44-11.91-.93-12.44l.93,12.44Z"/>
        <path class="cls-2" d="M943.84,266.73c.23.78.36,2.03.62,1.76.01-3.8-.21-4.58-.62-1.76Z"/>
        <path class="cls-2" d="M943.14,259.72c.05-.23.1-.46.14-.69-.08.02-.12.29-.14.69Z"/>
        <path class="cls-2" d="M942.73,264.41c.65.72.35-3.09.41-4.69-.22,1.14-.42,2.44-.41,4.69Z"/>
        <path class="cls-2" d="M887.21,206.17c1.41,1.21,5.54,2.88,7.37,3.76,1.77.21-5.68-2.56-7.37-3.76Z"/>
        <path class="cls-2" d="M856.26,191.57c1.39.56,1.8.86,2.92,1.44l-.72-.93c-1.78-.85-4.16-1.69-2.2-.51Z"/>
        <polygon class="cls-2" points="220.55 160.41 216.89 162.45 220.25 161.01 220.55 160.41"/>
        <path class="cls-2" d="M69,366.02c.07-.59.84.49.53-3.06.07,4.25-.57-.15-.53,3.06Z"/>
        <polygon class="cls-2" points="96.44 485.8 97.79 485.79 96.9 485.01 96.44 485.8"/>
      </g>
      <polygon class="cls-7" points="972.62 559.25 990.69 599.52 894.09 668.26 894.09 579.39 972.62 559.25"/>
      <path class="cls-1" d="M943.87,729.08c.04-3.06-.83-11.54-1.16-11.28.64-11.96.1-31.72-.32-39.89.17,1.54.41,1.68.15.14-.15-4.15-.8-8.82-.3-9.22-.31-4.03.53-3.75.6-9.94.13-.09-.42-.6-.6.05.99-10.38-.72-23.4-.05-35.74.07,1.02.49,2.43.73,3.4-.38-9.61-.69-18.76-1.61-27.4.34.92.67.64.86,2.92-.01-6.68-.21-14.44-.91-17.54-.35,4.54.42.3.38,3.37-.67,4.8-1.37-3.79-1.19-8.2l.16-.12c-.02-6.68-.43-6.97-.44-13.66.43-4.01.21,3.48.68,1.89,1.22-1.58.77-15.25.91-16.6-.27-1.6-.46-3.87-.79-3.6-.32-5.23.71-2.4.65-6.02l-2.11-13.51v-.8c.36-.49.95-4.15,1.32-.28-.1-6.85-.7-11.84-1.32-16.27v-23.94c.32,2.18,1.09-2.76,1.48.46-.15-2-.19-4.94-.17-8.29.06-3.77.12-8.01.18-12.1-4.21-.07-8.27-.15-11.71-.21,6.31,1.19-10.88.67-12.4,1.55h-6.8c-1.9-.29-.41-.82-3.23-.98-11.75.44-22.91.12-33.6.25,0,0-.15-.15.43-.23-9.61.33-25.01.03-34.88.96h-.59c.25-.21-.31-.4,2.02-.56-5.72-.21-5.81.22-6.64.56h-6.49l1.83-.36c-7.57.54-14.69-.49-23.33.36-.3-.3,1.61-.4,2.84-.56-6.52.2-13.71.16-19.79.56h-4.07c.17-.23,1.31-.43,3.47-.61-5.8-.32-7.67.37-11.15.61h-4.85c-2.12-.09-5.47-.5-4.23-.52-2.43.33-8.22.43-12.91.52h-6.06c-1.32-.25-3.85-.39-7.62-.72-37.56.02-75.97-.13-113.38.72h-5.39c-5.09-1,9.44-.63,5.42-1.37.29.96-6.6.27-18.44.6l-.48-.14c-5.05.21-7.89-.41-13.34-.11l.19.25c-5.78.62-12.82-1.24-15.9-.01l-4.44-.69c-5.67,1.09-9.06-.34-16.05.57l.8-.19c-9.47-.48-19.67,1.19-23.31.32-6.4.13-13.52.3-16.95.78h-2.8c.04-.25.72-.51,1.45-.68-21.62.31-45.06.29-66.54.68h-166.11c-19.49-.35-38.96-.43-55.65,0h-22.19c-.17-.19-.42-.35-1.79-.31-3.08.14-6.25.24-9.44.31h-122.08v25.95l-.21-1.83c.21,3.09-.19,6.69-.78,5.47l.44,6.06-.74-.3c.26,10.18-.48,17.23.11,27.78l.75-3.96c.02,3.1.28,6.22.43,9.28v5.56c-.05,1.08-.09,2.16-.26,3.2-.27-2.79-.65-.79-1.06-.72.13,1.42.43,3,.31,4.71l-1.28-2.83c1.69,2.71.62,16.76.89,19.53l-.23-.88c-.54,9.17.71-1.61.73,4.58-.2,5.29-1.38,1.99-1.9,6.85.04,9.3,1.01,25.26.02,35.66.22,8.29.68,17.45,1.26,24.92,0,7.39-1.32-.41-.74,7.08-.44-.81-.91.24-1.34.91.49,1.03-.08,13.87,1.05,7.94-.25,10.78-.36,22.93-.11,34.28-.08-3.78-.89-4.78-1.29-1.59.79,5.26,1.24,14.45,1.02,24,.84-.18.82-3.28,1.64-2.28.13,1.42.5,3.72.44,6.1-.86,1.38-2.18.97-2.21,9.53-1.35-2.3.17-14.56-1.17-10.67-1.08-3.78-1.14-19.21-.48-22.7-1.16-7.59-.13,5.97-1.26,4.55.09,6.88.68,10.06.86,20.73.57.12.66-3.48,1.13,1.41,1.2,9.48-.85,11.85-.9,14.23-.09-1.38-.21-3.28-.31-4.68-.4,6.27.39,8.47.32,15.12-1.55,1.82-.18-10.62-1.12-13.05l-1.11,4.79c-.08,5.11.24,5.81.53,6.55.14.37.28.75.35,1.69.04.47.06,1.09.06,1.92-.02,1.31-.04,2.95-.08,5.03l-.55-2.31.15,5.26,6.86,3.63c.57-.15-.61-1.48-5.38-4.37.06-1.47.08-3.25.06-5.39.46,1.94.66,3.36.72,5,.88.46,1.75.96,2.73,1.54.9.55,1.91,1.16,3.08,1.87,1.56.98,3.58,2.2,6.54,3.76,3.16.88-3.62-1.95-3.36-2.69-.43-1.05,5.39,2.19,9.7,4.46,6.94,3.9,3.08,2.7,5.58,4.7-1.39-.63-6.8-3.55-5.97-3.6-9.02-4.14,2.8,3.44-3.45.57,6.23,4.03,6.55,3.16,10.02,4.79-1.7-1.09,1.53-.05.25-1.08,12.59,4.64,6.4,5.37,17.52,11.19-1.53-2.42,15.66,6.61,8.55.91,2.76,1.28,6.25,2.87,8.88,4.51-3.43-.87,4.46,3.33-1.21,1.16l3.98,2.25-6.63-2.46s.06.04.08.06c11.47,8.5,23.99,14.15,36.63,21.18-2.1-.67-4.19-1.33-6.29-2,6.72,3.01,13.45,6.02,20.17,9.03-2.08-.75-4.16-1.49-6.25-2.24,10.17,6.53,20.79,12.51,31.76,17.89-3.22-2.14-6.43-4.28-9.64-6.42,16.38,9.45,32.76,18.9,49.15,28.34,11.27,5.71,22.53,11.41,33.79,17.12-2.48-1.02-4.95-2.04-7.43-3.05,8.67,3.12,17.33,6.23,26,9.35-1.91-.59-3.81-1.19-5.71-1.78,1.89,1.33,3.79,2.66,5.68,3.99-3.62-.88-7.24-1.77-10.87-2.65,9.14,0,29.14,16.2,37.21,20.69,13.95,7.76,27.9,15.51,41.85,23.27,22.86,12.71,45.56,27.42,69.37,38.26l2.96,2.37,1.07-.09c5.29,2.58,11.94,6.49,10.71,6.93,2.11.97,4.17,1.92,1.8.25,4.74,3.33,18.62,11.13,27.94,15.98-4.17-2.63-3.63-2.67-3.64-3.39,1.92-.13,1.94,1.32,5.96,2.87-.13.38,3.79,3.03-.82.77,3.57,2.49,7.75,5.05,12.27,7.66,2.27,1.28,4.61,2.6,7,3.95,3.2,1.77,6.47,3.57,9.75,5.39,3.73-2.13,7.49-4.28,11.22-6.42,2.95-1.64,5.88-3.28,8.76-4.88,3-1.87,1.95-1.48,3.29-2.55,10.27-4.55,21.47-12.12,32.16-17.6-2.59.95,0-1.92,5.79-5.19,5.83-4.26,3.21-.42,9.23-3.21,2.6-1.92,7.88-5.02,10.18-6.24l-.1.23c3.22-2.34,8.57-5.65,12.94-7.65l-.61.42c3.43-1.84,7.66-3.6,11.18-5.65,1.13-1.57,10.06-6.01,11.74-7.78.49-.17-.13.25.92-.15l-.09-.73,7.26-3.63c-1.37,1.08-1.56,1.53-3.43,2.8,7.79-3.83,2.17-1.95,5.92-4.48,4.97-3.36,5.06-2.63,7.77-3.82-1.97,1.5-3.94,2.03-5.18,2.87-2.69,2.14,3.3-1.61,3.63-1.34,1.14-.61,1.14-1.57,5.09-3.6,3.39-1.82,11.08-6.39,10.57-5.24,2.63-1.93,6.02-3.75,7.98-5.24-2.8,1.42-7.88,4.05-8.73,3.98,2.41-1.46,7.16-4.36,8.13-4.54l-1.87,1.27c1.87-1.27,9.2-5.12,5.08-3.6l5.67-2.08c1.57-1.54,6.71-4.38,10.84-6.85,9.77-5.85,30.33-16.32,43.6-23.6-1.3.98-2.59,1.97-3.89,2.96,28.53-16.4,57.05-32.81,85.58-49.21-1.54,1.1-3.09,2.21-4.63,3.31,13.18-6.5,27.51-14.61,39.58-22.23,3.64-2.3,4.45-3.17,8.8-5.15-.2.45-1.97,1.49-3.21,2.34,6.74-3.45,11.72-6.82,17.24-10.39,4.02-1.28,15.32-8.13,23.09-11.95,3.64-3.26,12.44-6.5,12.23-7.96-.1.22.95-.16,1.46-.35,2.59-1.9,4.36-3.91,7.89-5.97l-.63,1.38c-.19,1.32,8.89-4.6,11.21-5.5-2.39.66,4.44-2.41,4.33-3.1l4.04-2.6c3.28-1.98,3.41-2.18,3.75-2.49.17-.15.39-.32,1.08-.76.35-.21.81-.49,1.44-.87.68-.4,1.54-.9,2.64-1.54,3.05-1.74,3.87-1.9,3.59-1.46-.27.44-1.79,1.58-3.02,2.2,1.45-.69,2.93-1.44,4.39-2.21.05-1.78.05-3.71.02-5.46-.05-1.24-.09-2.48-.14-3.73-.04-.76-.08-1.52-.11-2.28,0,1.61-.07,2.15-.28.64.13-.1.2-.53.25-1.09-.08-1.61-.15-3.22-.15-4.85.02.04.03.04.05.07.06,1.77.1,3.4.12,4.62.09-1.11.09-2.78.09-4.51.08-.16.06-.69.01-1.43.02-1.42.06-2.75.2-3.62l.76,1.2ZM74.63,504.29c.08-.3.15-.44.23-.49v7.05c-.09-.02-.19,0-.3.14.13,1.38.24,2.13.3,2.96v3.49c-.67-1.83-.85-10.88-.23-13.16ZM74.86,560.47v2.89c-.05-.19-.1-.37-.15-.56.08-.91.12-1.65.15-2.34ZM942.34,723.3c.03.91.07,1.99.11,3.16-.1-1.19-.15-2.32-.11-3.16Z"/>
      <g>
        <path class="cls-4" d="M109.87,724.34c.2,7.91.77-4.25.34,5.17-.35-1.08-.62-2.6-.34-5.17Z"/>
        <path class="cls-4" d="M133.85,743.37c23.33,10.48,51.46,28.94,76.51,41.34,2.89,1.52-1.35.68,5.23,4.03,24.45,11.7,61.09,33.51,89.14,50.84l-1.91-.67c5.35,3.3,12.6,6.03,18.32,9.43-.07.23-2.02-.75-.83.28,1.81.2,10.64,5.6,13.36,6.53,2.16,1.53,1.65,1.89,4.47,3.82l3.72,1.16c10.16,3.51,22.34,12.71,35.41,18.92-.7-.18-2.01-.75-1.1-.03,20.78,10.34,45.96,24.73,68.76,37.06-1.04-.26-2.13-.27-.96.75,1.53-.11,8.62,3.62,14.75,6.88,2.3,2.29,10.78,5.14,17.65,9.55l-.7-.17c5.7,2.16,7.53,4.84,12.33,6.27l2.99,2.47c2.91.23,7.28,4.82,11.93,6.72l-.02-.3c.51.24.98.48,1.42.72.2.11.4.22.59.32.17.1.34.19.51.29.66.38,1.26.76,1.87,1.15,1.36-.66,2.64-1.24,4.66-2.5l.43-.08c8.73-5.28,14.23-7.58,13.54-8.3,3.49-1.08-8.44,5.14-3,3.37,28.75-17.29,58.98-34.05,88.4-50.6,3.53-1.54,5.72-2.64,6.64-2.74,2.84-1.82,10.98-6.37,13.42-8.3-.98.57,2.14-.64,3.72-1.47,5.53-2.69,5.33-4.21,11.42-7.13-2.21,1.54-2.85,2.25-1.9,2.13,4.65-3.47,11.41-7.14,17.22-10.68-.84.66-2.23,1.55-1.85,1.68,6.06-4.38,11.91-6.49,17.33-10.15l-1.86,1.68c9.48-4.55,2.13-2.53,10.24-6.63-1.81,1.22-1.04,1.03-1.27,1.42,6.88-5.02,18.98-11.44,26.18-15.88-.4.31-.21.38-.21.38,7.96-4.62,16.49-9.05,25.09-14.39,3.33-1.59-.39,1.77,8-3.18-.86-.8,14.18-8.49,8.56-6.78,7.34-3.91,19.01-9.99,23.66-13.04-3.05,2.2,4.2-.8-1.78,2.67l4.88-1.97c-.45.78-4.76,2.5-3.04,2.19,3.01-1.74,11.58-7.07,14.37-8.42,5.25-3.74,9.77-7.74,18.76-12.95-4.05,2.77,3.02-.29.22,1.5l11.59-8.96c2.99-1.74,1.09.4,5.3-2.3-.37-.13,1.44-1.35,2.65-2.31,1.19-.53,12.39-7.28,14.24-7.06,1.54-.37-4.8,2.96-1.27,1.43,5.56-3.14,5.62-3.6,11.18-6.75l.18.07c3.76-1.92,10.61-6.5,6.31-4.78-2.58,1.41,1.29.03-2.65,1.88,2.27-2.01,8.66-5.8,14.22-8.94-1.81,1.22-1.44,1.35-2.05,2.05,7.06-4.96,14.85-9.64,23.03-14.65-.13-.53-2.65,2.58-4.01,3.03,2.4-1.17,4.77-2.46,7.12-3.8,1.16-.68,2.33-1.36,3.49-2.04.73-.46,1.46-.91,2.18-1.37-.03-.55-.06-1.09-.09-1.63l-.04-.81-.04-1.28c-.05-1.7-.09-3.37-.11-5.01-.03-3.27.04-6.39.34-9.29.09,1.67-.74.91-.59.79.07-5.92.82-5.65.54-9.5.45-.38-.14-4.84-.28-8.81-.32-2.05.22-1.03.27,2.42-.38-5.52-1.06-27.65-.41-40.42-.29.25-1.08-7.85-1.04-10.78l.69,1.15c.41-2.68-.06-9.84.53-10.33-.83-6.28.71,24.16.06,15.67.57-2.19-1.09-11.81-.16-9.99-.02-5.91-.8-11.62-.15-17.26-.11,1.64.95,4.79.9.02-.12-8.38-.33-2.39-.56-9.18l-.28-4.27c-.67-.29.09-7.5-.66-4.38.55-1.03-.34-12.19.77-11.33l.87,1.16c-.06-3.62-.92-5.94-1.3-8.78.08-.48.26-1.43.4-1.25-1.33-.58.11-8.66-.92-12.96.46-7.61.04-19.33.88-22.92-.41-5.84-.89-11.18-.6-17.85.12,1.34.16,3.15.45,3.53.39-4.18.04-5.22-.18-9.03.2.85.78-8.38,1.26-13.02-.4-5.81-1.12-3.82-1.56-4.4.05-.22.1-.45.15-.69.04-.12.08-.25.12-.39.07-.28.11-.59.14-.92.06-.66.04-1.38,0-2.07-.74.04-1.5.12-2.22.19l-1.04.11c-.08.02-.56.03-.88.05l-1.04.04c-2.77.09-5.42.06-7.59-.33,2.01-.18,8.47-.65,3.63-.98-5.31-1.31-10.7.97-19.27.34l2.11,1.09c-3.81-.68-12.6.63-11.73-.48-2.87.39-10.09-.36-9.15.7-14.06-.9-34.19.54-42.83-1.37-2.02.18-7.05,0-6.02.54,3.35.59,4.68-.42,5.93-.02-1.81.03-2.21.33-2.39.47-4.38-.24-7.82-.32-3.68-1.21-9.73-.66-10.03,1.81-22.41,1.4.56-.44-.37-.61-3.99-.54l-6.88.76c-8-.18-4.54-1-4.74-1.75-4.29.13-9.52.09-11.45.65l-5.19-.94c3.77.68-3.52.45-5.54.63l2.02-.18c-.79-.32-5.74-.12-8.23-.03.58.46,5.63.65,8.38.79-2.18.33-5.58.25-8.47.64.95-.73-6.98-.52-10.38-.6-3.9-.16-4.39.66-5.54.63-.1-.38-6.36-.06-3.32-.59,1.33-.12,3.04.37,5.24.04-2.58-.28-2.28-.95-7.6-.46-4.02.36,1.02,1.45-6.6.98,2.02-.18,2.38-.47,3.93-.74l-7.14-.38-.3.67c-.96-.17-.31-.23-.74-.32-2.13.7-10.9.22-12.52,1.01-3.61.07-7.59-.46-11.03-.54l.66-.06c-4.21-.39-9.79-.13-13.32.32l.19-.15c-2.3-.05-7.73.05-10.59.45-5.81-.5-1.96-2.52-8.37-1.68-5.89.02-9.23,1.22-6.86,1.65-10.58-.45-22.6.64-32.4-.4-1.52.27-.56.44-3.69.6-15.53-.26-32.8.79-45.17-.52,4.51-.28.31-.67.22-1.05-3.71.6-4.47-.62-5.8.4.37.6,0,.9,4.37,1.14-9.26.33-23.35.33-28.49-.24,2.57.28.58.47-1.44.65.68-.96-6.17-1.11-11.34-.77l-.72.59-3.37-.6c-1.98.19-2.19,1.23-7.33.67-.25-.23-.55-.46-1.5-.62-5.35.48-12.89,1.29-18.69.8l-4.76-.86c-2.48.09-6.65.61-2.28.86-9.89-.52-16.28-.58-19.43-1.32-17.05,1.81-41.81,1.88-61.65,1.75l.58-.44c-5.32-.41-2.76.77-6.48.46,1.73-.42-4.06-.91.13-1.42-7.62-.46-9.81.76-14.78.96-.75.58,3.99-.37,3.03.36-.85.21-10.55-.45-11.73.42-1.9-.34-.42-.98.61-1.34l-4.65.42c-5.7-1.02,12.98-1.82,6.99-3.08l-4.29.14c-4.09-.92,11.35-1.03.58-1.34-4.68.43-8.68,1.7-4.52,2.08-9.72.24-4.51,2.08-14.97,2.01-2.86-.51,8.38-.12,6.36-.84-4.93-.7-9.89.39-14.26.15,4.86.33.75,1.21-2.41,1.37-5.32-.41,3.45-.82-4.08-.91-1.24.5-8.16.88-2.18,1.23-2.73,1.14-7.84-.32-11.95.57-2.45-.8,7.76-1.86-.52-2.26,1.31.77-10.23,1.05-5.85,2.2-3.24-.23-3.59-.83-1.23-1.31-4.63-.48-11.25,1.41-12.77-.12l-1.59.79c-1.45-.26-3.53-.45-5.91-.88-4.09-.01-13.16,1.07-12.79-.12-1.31.12-10.63.07-7.04.9,5.81.5,6.67-.61,9.9.51-4.09-.91-8.37.12-11.72.42l-.55-.46c-2,.18-6.59.08-7.84.58,1.54-.27.74-.58-.86-.69l-2.09.7c-8.12.35-1.91-1.24-9.8-1.03l6-.55c-1.31.12-4-.54-7.77-.32-1.47.64-4.23,1.41-5.49,1.91-4.45.28-1.99-.72-6.37-.06l5.74-.77c.86-.21-3.87-1.06-9.81-1.04-3.79.22-9.69,1.15-3.69,1.5-2.99,0-7.17-.38-4.79-.85-6.75.22.87.69-4.95,1.09-2.39-.43-9.8-1.04-14.28-1.66l6.09-1.07h-4.06c5.25-.87-2.65-.67.3-1.57-2.75-.14-6.1.17-8.76.4,8.07,1.45-9.06,1.98-6.72,3.31-11.06.36-6.91-3.22-18.46-1.15,1.9.35-3.55,1.35,3.42.97-6.88-.15-4.67,1.33-12.78.78,6.01-.54-6.45-1.34,2.23-2.13-.58.44,4.85.33,6.19.21-2.84-.51.58-1.33-6.47-1.33-4.29.13-10.19.15-9.34.84.18.76,6.57-.08,3.82.69-8.57.26-9.99-.89-13.54.45,5.41-.1,6.76.68,6.67,1.2l-6.29.32,1.22-.5c-10.08-.36-2.97.91-12.75.78l-4.59-1c2.33-.86,14.22.38,12.47-1.01-6.35-.06-8.45.65-14.45.29,1.33-.12,3.15-.15,4.47-.28-2.28-.05-4.54-1.9-13.61-.81-4.67.42-1.23.5-1.35,1.02-.4,0-.78.01-1.16.02-.11,0-.21.02-.31.02-.19.02-.37.04-.54.05-.33.04-.59.09-.8.13.11.71.23,1.2.33,1.58l.02.08.02.35.03.7c.02.47.04.95.06,1.44.04.98.06,2,.08,3.13-1.02-1.35-.1,11.61-1.14,4.36.22-1.2.35-3.88.38-6.99,0-.78,0-1.58,0-2.39v-.61s-.01-.18-.01-.18l-.02-.36c-.03-.49-.09-1-.18-1.55.59-.13,1.17-.34,1.54-.61-.46-.3-.53-.44-.24-.5.14-.03.37-.04.64-.04.5,0,1.09.01,1.72.02,2.74.04,6.22.08,7.32-.53-8.17-.03-7.82-1.22-9.09-2-2.05-.05-3.81.28-4.77.4-.04.37.55.55,1.15.73.61.18,1.25.37,1.52.75-.55-.01-1.1-.03-1.62-.04-.02,1.21,0,2.44.03,3.59.03.89.05,1.77.07,2.62.04.92.07,1.82.11,2.69.17,3.48.43,6.51.75,8.78-.36,3.06-1.1,2.1-1.16-1.51.22,10.86.12,22.46-.1,32.78,1.2-6.66.28,11.5,1.28,6.96.27-5.54,1.12-10.28,1.66-7.23-.08,3.45-.52-.12-.78,1.33.65,4.4-1.05,6.84-.02,11.16-.39-9.92-1.46-1.93-2.4-3.76.53,7.15-.67-.3-.67,6.76.52,7.14.93,15.9,1.14,23.82-.89,9.95-.02,25.21.02,34.1-.47,4.65-1.54,1.5-1.72,6.55.02,5.93,1.15-4.39.66,4.38l-.21-.85c.25,2.66-.72,16.08.8,18.68l-1.15-2.71c-.1,1.63.16,3.15.28,4.51-.37.06-.71,1.97-.96-.7-.79,5.42.13,11.37.16,17.26l.68-3.79c.53,10.08-.14,16.82.1,26.56l-.67-.29.4,5.79c-.64-1.42-1.06,3.9-.52,6.96l-1.63-15.06c.39-4.18.8,4.57,1.46,1.95.57-2.24.39-11.25-.25-12.71-.08,3.45.07,3.62.31,6.29-.93,1.15-.89-4.09-1.51-6.68.04,1.8-.24,4.38.05,4.77-.45-3.55-.52-7.13-.54-13.06.36,4.01.57-2.18.84-.66-.82-.47-1.07-6.12-.84-13.43.94-5.22-.61-13.72-.35-22.2.83,3.43,1.49,7.82,1.82,12.98.42-5.31-.02-5.92.39-11.25-.61-2.57-1.56-4.41-1.93-11.35l.61-.38c-.31-6.28-1.21-6.28-1.04-14.3.3-13.7.3-27.81.38-38.27l.61-.4c-1.3-5.82-.48-19.41-1.06-27.24.59-13.33-.58-28.96.46-35.8-.07-4.25-.14-8.43-.21-12.27,10.49-.16,20.55-.31,30.76-.46,9.53-.1,19.19-.13,29.55-.03l-4.09.88c4.36-.65,2.83.51,7.11.38-4.92-.71,5.94-.92,8.96-1.46,10.86.69,24.8-.06,34.42-.68l.38.61c9.72-1.14,21.34-.14,33.45.05,1.39.25,3.58.82,7.19.76,6.57-.98,10.01-.92,19.65-1.53,7.04,0,18.47.24,25.62.63,26.48-1.38,53.53-.5,81.04-1.33l1.99.71c26.69-1.53,59.51-.14,82.29-.92l-2.2,1.22c7.13.38,16.28-.32,14.46-1.19,7.17.38,17.87-.59,22.41.41,7.33.22,8.96-.56,15.04-.73,14.66.46,20.1.36,33.91.13l-3.42-.08c-1.52.27-1.65.79,1.79.87,5.15-.34,18.95.33,13.82-1.13,14.75.85,34.4-.69,48.75.45-1.23-.4,2.39-.48,3.93-.74,12.93-.02,26.54.79,36.86.12,2.07.2-3.27.68,1.99.72,3.12-.15.08-.52,3.91-.74,20.96-.74,42.45.77,61.52.57,33.89-.77,69.24-.38,101.7-.51l-.37.29c10.88-1.12,25.51,1.15,34.19-.54,2.57.28,9.81.13,7.91.69,4.33-.39,10.39-.21,16.93-.05,3.27.08,6.66.15,10.02.14,1.68,0,3.35-.03,4.99-.09,1.26-.04,2.51-.07,3.74-.11,1.42-.05,2.83-.11,4.21-.16-1.99-.03-3.19.03-5.52.16,3.21.1,6.29.16,9.25.2-.02,2.24-.03,4.45-.05,6.66,0,1.89,0,3.78,0,5.66.03,2.57.05,5.14.08,7.73.05,5.18.07,10.47-.18,16.16-.13-1.36-.22-3.82-.51-4.21-.56,5.15,1.24,12.21-.18,15.04.01,2.95.71,2.1.67.29-.55,29.21.35,60.4.67,90.8-.85,21.79-2.38,1.33-1.32,18.52-.27,1.4.54,1.01.25,1.26.39,6.65-1.58,10.35-.84,14.97.87-1.9.48,3.07,1.01,3.21-.56,13.32-1.35,15.99-.69,26.51l-.46-.79c.53,5.07.73,10.46.88,15.78.08,2.66.15,5.3.23,7.86.13,3.47.25,6.84.37,10.05-1.49.94-2.93,1.85-4.33,2.73-.36.23-.71.46-1.07.69l-.61.44c-.39.29-.77.57-1.14.85-59.12,33.53-115.5,66.16-173.19,98.77-57.24,31.84-112.82,63.84-171.19,95.73-14.18,6.59-15.18,7.19-29.86,16,.5-.51,1.42-1.07.34-.67-.27,1.28-10.47,5.98-11.43,7.6-2.66,1.48-5.3,2.95-7.78,4.33-5.87-3.31-11.64-6.56-17.39-9.8-4.81-2.68-9.59-5.35-14.39-8.03-9.61-5.36-19.3-10.76-29.48-16.44,3.54,1.87,5.68,2.15,1.51-.12l-4.65-1.89-.57-.63c-2.9-1.46-6.23-2.78-3.46-.86-55.83-30.39-109.37-62.75-163.76-93.03-12.69-7.6-31.21-17.58-45.32-25.27-40.86-24.47-77.75-46.41-120.36-69.3,0,0,6.75.88,24.44,10.14Z"/>
        <path class="cls-4" d="M109.77,714.83c.49-1.7.76-7.23,1.42-2.82-.46.55-.98,3.4-1.42,2.82Z"/>
        <path class="cls-4" d="M114.83,567c-.14-.19.2-2.11.28-2.58.04,1.82.45,3.53.2,4.98-.04-1.84-.27-1.56-.48-2.4Z"/>
        <path class="cls-4" d="M115.13,529.21c.44.56.79,8.65.84,13.43l-.84-13.43Z"/>
        <path class="cls-4" d="M118.68,506.61c1.52.18,2.08.33,1.73.42-.17.05-.57.08-1.18.11-.33,0-.77.02-1.32.03-.04-.12-.03-.2.01-.29.02-.04.05-.08.08-.13.21-.04.47-.09.67-.14Z"/>
        <path class="cls-4" d="M121.18,505.61c2.93-.01,4.38.25,5.8.5-.12-.38-6.78.24-5.8-.5Z"/>
        <path class="cls-4" d="M197.63,506.89c1.84-.04,5.81-.4,7.53.09-1.93-.34-8.95.56-7.53-.09Z"/>
        <path class="cls-4" d="M233.16,506.22c1.15.03,1.62.11,2.96-.01,2.1.2-.12.52-1.9.56l-1.05-.55Z"/>
        <polygon class="cls-4" points="879.96 504.47 876.12 504.68 876.69 504.25 879.96 504.47"/>
        <path class="cls-4" d="M873.59,742.32c-3.21,2.12-2.53.95-3.12,1.21,3-1.74-.85,1.1,3.12-1.21Z"/>
        <polygon class="cls-4" points="741.43 819.09 742.44 818.51 742.54 819.49 741.43 819.09"/>
      </g>
      <g>
        <path class="cls-4" d="M906.45,284.6c-.2-7.91-.77,4.25-.34-5.17.35,1.08.62,2.6.34,5.17Z"/>
        <path class="cls-4" d="M882.47,265.58c-23.33-10.48-51.46-28.94-76.51-41.34-2.89-1.52,1.35-.68-5.23-4.03-24.45-11.7-61.09-33.51-89.14-50.84l1.91.67c-5.35-3.3-12.6-6.03-18.32-9.43.07-.23,2.02.75.83-.28-1.81-.2-10.64-5.6-13.36-6.53-2.16-1.53-1.65-1.89-4.47-3.82l-3.72-1.16c-10.16-3.51-22.34-12.71-35.41-18.92.7.18,2.01.75,1.1.03-20.78-10.34-45.96-24.73-68.76-37.06,1.04.26,2.13.27.96-.75-1.53.11-8.62-3.62-14.75-6.88-2.3-2.29-10.78-5.14-17.65-9.55l.7.17c-5.7-2.16-7.53-4.84-12.33-6.27l-2.99-2.47c-2.91-.23-7.28-4.82-11.93-6.72l.02.3c-.51-.24-.98-.48-1.42-.72-.2-.11-.4-.22-.59-.32-.17-.1-.34-.19-.51-.29-.66-.38-1.26-.76-1.87-1.15-1.36.66-2.64,1.24-4.66,2.5l-.43.08c-8.73,5.28-14.23,7.58-13.54,8.3-3.49,1.08,8.44-5.14,3-3.37-28.75,17.29-58.98,34.05-88.4,50.6-3.53,1.54-5.72,2.64-6.64,2.74-2.84,1.82-10.98,6.37-13.42,8.3.98-.57-2.14.64-3.72,1.47-5.53,2.69-5.33,4.21-11.42,7.13,2.21-1.54,2.85-2.25,1.9-2.13-4.65,3.47-11.41,7.14-17.22,10.68.84-.66,2.23-1.55,1.85-1.68-6.06,4.38-11.91,6.49-17.33,10.15l1.86-1.68c-9.48,4.55-2.13,2.53-10.24,6.63,1.81-1.22,1.04-1.03,1.27-1.42-6.88,5.02-18.98,11.44-26.18,15.88.4-.31.21-.38.21-.38-7.96,4.62-16.49,9.05-25.09,14.39-3.33,1.59.39-1.77-8,3.18.86.8-14.18,8.49-8.56,6.78-7.34,3.91-19.01,9.99-23.66,13.04,3.05-2.2-4.2.8,1.78-2.67l-4.88,1.97c.45-.78,4.76-2.5,3.04-2.19-3.01,1.74-11.58,7.07-14.37,8.42-5.25,3.74-9.77,7.74-18.76,12.95,4.05-2.77-3.02.29-.22-1.5l-11.59,8.96c-2.99,1.74-1.09-.4-5.3,2.3.37.13-1.44,1.35-2.65,2.31-1.19.53-12.39,7.28-14.24,7.06-1.54.37,4.8-2.96,1.27-1.43-5.56,3.14-5.62,3.6-11.18,6.75l-.18-.07c-3.76,1.92-10.61,6.5-6.31,4.78,2.58-1.41-1.29-.03,2.65-1.88-2.27,2.01-8.66,5.8-14.22,8.94,1.81-1.22,1.44-1.35,2.05-2.05-7.06,4.96-14.85,9.64-23.03,14.65.13.53,2.65-2.58,4.01-3.03-2.4,1.17-4.77,2.46-7.12,3.8-1.16.68-2.33,1.36-3.49,2.04-.73.46-1.46.91-2.18,1.37.03.55.06,1.09.09,1.63l.04.81.04,1.28c.05,1.7.09,3.37.11,5.01.03,3.27-.04,6.39-.34,9.29-.09-1.67.74-.91.59-.79-.07,5.92-.82,5.65-.54,9.5-.45.38.14,4.84.28,8.81.32,2.05-.22,1.03-.27-2.42.38,5.52,1.06,27.65.41,40.42.29-.25,1.08,7.85,1.04,10.78l-.69-1.15c-.41,2.68.06,9.84-.53,10.33.83,6.28-.71-24.16-.06-15.67-.57,2.19,1.09,11.81.16,9.99.02,5.91.8,11.62.15,17.26.11-1.64-.95-4.79-.9-.02.12,8.38.33,2.39.56,9.18l.28,4.27c.67.29-.09,7.5.66,4.38-.55,1.03.34,12.19-.77,11.33l-.87-1.16c.06,3.62.92,5.94,1.31,8.78-.08.48-.26,1.43-.4,1.25,1.33.58-.11,8.66.92,12.96-.46,7.61-.04,19.33-.88,22.92.41,5.84.89,11.18.6,17.85-.12-1.34-.16-3.15-.45-3.53-.39,4.18-.04,5.22.18,9.03-.2-.85-.78,8.38-1.26,13.02.4,5.81,1.12,3.82,1.56,4.4-.05.22-.1.45-.15.69-.04.12-.08.25-.12.39-.07.28-.11.59-.14.92-.06.66-.04,1.38,0,2.07.74-.04,1.5-.12,2.22-.19l1.04-.11c.08-.02.56-.03.88-.05l1.04-.04c2.77-.09,5.42-.06,7.59.33-2.01.18-8.47.65-3.63.98,5.31,1.31,10.7-.97,19.27-.34l-2.11-1.09c3.81.68,12.6-.63,11.73.48,2.87-.39,10.09.36,9.15-.7,14.06.9,34.19-.54,42.83,1.37,2.02-.18,7.05,0,6.02-.54-3.35-.59-4.68.42-5.93.02,1.81-.03,2.21-.33,2.39-.47,4.38.24,7.82.32,3.68,1.21,9.73.66,10.03-1.81,22.41-1.4-.56.44.37.61,3.99.54l6.88-.76c8,.18,4.54,1,4.74,1.75,4.29-.13,9.52-.09,11.45-.65l5.19.94c-3.77-.68,3.52-.45,5.54-.63l-2.02.18c.79.32,5.74.12,8.23.03-.58-.46-5.63-.65-8.38-.79,2.18-.33,5.58-.25,8.47-.64-.95.73,6.98.52,10.38.6,3.9.16,4.39-.66,5.54-.63.1.38,6.36.06,3.32.59-1.33.12-3.04-.37-5.24-.04,2.58.28,2.28.95,7.6.46,4.02-.36-1.02-1.45,6.6-.98-2.02.18-2.38.47-3.93.74l7.14.38.3-.67c.96.17.31.23.74.32,2.13-.7,10.9-.22,12.52-1.01,3.61-.07,7.59.46,11.03.54l-.66.06c4.21.39,9.79.13,13.32-.32l-.19.15c2.3.05,7.73-.05,10.59-.45,5.81.5,1.96,2.52,8.37,1.68,5.89-.02,9.23-1.22,6.86-1.65,10.58.45,22.6-.64,32.4.4,1.52-.27.56-.44,3.69-.6,15.53.26,32.8-.79,45.17.52-4.51.28-.31.67-.22,1.05,3.71-.6,4.47.62,5.8-.4-.37-.6,0-.9-4.37-1.14,9.26-.33,23.35-.33,28.49.24-2.57-.28-.58-.47,1.44-.65-.68.96,6.17,1.11,11.34.77l.72-.59,3.37.6c1.98-.19,2.19-1.23,7.33-.67.25.23.55.46,1.5.62,5.35-.48,12.89-1.29,18.69-.8l4.76.86c2.48-.09,6.65-.61,2.28-.86,9.89.52,16.28.58,19.43,1.32,17.05-1.81,41.81-1.88,61.65-1.75l-.58.44c5.32.41,2.76-.77,6.48-.46-1.73.42,4.06.91-.13,1.42,7.62.46,9.81-.76,14.78-.96.75-.58-3.99.37-3.03-.36.85-.21,10.55.45,11.73-.42,1.9.34.42.98-.61,1.34l4.65-.42c5.7,1.02-12.98,1.82-6.99,3.08l4.29-.14c4.09.92-11.35,1.03-.58,1.34,4.68-.43,8.68-1.7,4.52-2.08,9.72-.24,4.51-2.08,14.97-2.01,2.86.51-8.38.12-6.36.84,4.93.7,9.89-.39,14.26-.15-4.86-.33-.75-1.21,2.41-1.37,5.32.41-3.45.82,4.08.91,1.24-.5,8.16-.88,2.18-1.23,2.73-1.14,7.84.32,11.95-.57,2.45.8-7.76,1.86.52,2.26-1.31-.77,10.23-1.05,5.85-2.2,3.24.23,3.59.83,1.23,1.31,4.63.48,11.25-1.41,12.77.12l1.59-.79c1.45.26,3.53.45,5.91.88,4.09.01,13.16-1.07,12.79.12,1.31-.12,10.63-.07,7.04-.9-5.81-.5-6.67.61-9.9-.51,4.09.91,8.37-.12,11.72-.42l.55.46c2-.18,6.59-.08,7.84-.58-1.54.27-.74.58.86.69l2.09-.7c8.12-.35,1.91,1.24,9.8,1.03l-6,.55c1.31-.12,4,.54,7.77.32,1.47-.64,4.23-1.41,5.49-1.91,4.45-.28,1.99.72,6.37.06l-5.74.77c-.86.21,3.87,1.06,9.81,1.04,3.79-.22,9.69-1.15,3.69-1.5,2.99,0,7.17.38,4.79.85,6.75-.22-.87-.69,4.95-1.09,2.39.43,9.8,1.04,14.28,1.66l-6.09,1.07h4.06c-5.25.87,2.65.67-.3,1.57,2.75.14,6.1-.17,8.76-.4-8.07-1.45,9.06-1.98,6.72-3.31,11.06-.36,6.91,3.22,18.46,1.15-1.9-.35,3.55-1.35-3.42-.97,6.88.15,4.67-1.33,12.78-.78-6.01.54,6.45,1.34-2.23,2.13.58-.44-4.85-.33-6.19-.21,2.84.51-.58,1.33,6.47,1.33,4.29-.13,10.19-.15,9.34-.84-.18-.76-6.57.08-3.82-.69,8.57-.26,9.99.89,13.54-.45-5.41.1-6.76-.68-6.67-1.2l6.29-.32-1.22.5c10.08.36,2.97-.91,12.75-.78l4.59,1c-2.33.86-14.22-.38-12.47,1.01,6.35.06,8.45-.65,14.45-.29-1.33.12-3.15.15-4.47.28,2.28.05,4.54,1.9,13.61.81,4.67-.42,1.23-.5,1.35-1.02.4,0,.78-.01,1.16-.02.11,0,.21-.02.31-.02.19-.02.37-.04.54-.05.33-.04.59-.09.8-.13-.11-.71-.23-1.2-.33-1.58l-.02-.08-.02-.35-.03-.7c-.02-.47-.04-.95-.06-1.44-.04-.98-.06-2-.08-3.13,1.02,1.35.1-11.61,1.14-4.36-.22,1.2-.35,3.88-.38,6.99,0,.78,0,1.58,0,2.39v.61s.01.18.01.18l.02.36c.03.49.09,1,.18,1.55-.59.13-1.17.34-1.54.61.46.3.53.44.24.5-.14.03-.37.04-.64.04-.5,0-1.09-.01-1.72-.02-2.74-.04-6.22-.08-7.32.53,8.17.03,7.82,1.22,9.09,2,2.05.05,3.81-.28,4.77-.4.04-.37-.55-.55-1.15-.73-.61-.18-1.25-.37-1.52-.75.55.01,1.1.03,1.62.04.02-1.21,0-2.44-.03-3.59-.03-.89-.05-1.77-.07-2.62-.04-.92-.07-1.82-.11-2.69-.17-3.48-.43-6.51-.75-8.78.36-3.06,1.1-2.1,1.16,1.51-.22-10.86-.12-22.46.1-32.78-1.2,6.66-.28-11.5-1.28-6.96-.27,5.54-1.12,10.28-1.66,7.23.08-3.45.52.12.78-1.33-.65-4.4,1.05-6.84.02-11.16.39,9.92,1.46,1.93,2.4,3.76-.53-7.15.67.3.67-6.76-.52-7.14-.93-15.9-1.14-23.82.89-9.95.02-25.21-.02-34.1.47-4.65,1.54-1.5,1.72-6.55-.02-5.93-1.15,4.39-.66-4.38l.21.85c-.25-2.66.72-16.08-.8-18.68l1.15,2.71c.1-1.63-.16-3.15-.28-4.51.37-.06.71-1.97.96.7.79-5.42-.13-11.37-.16-17.26l-.68,3.79c-.53-10.08.14-16.82-.1-26.56l.67.29-.4-5.79c.64,1.42,1.06-3.9.52-6.96l1.63,15.06c-.39,4.18-.8-4.57-1.46-1.95-.57,2.24-.39,11.25.25,12.71.08-3.45-.07-3.62-.31-6.29.93-1.15.89,4.09,1.51,6.68-.04-1.8.24-4.38-.05-4.77.45,3.55.52,7.13.54,13.06-.36-4.01-.57,2.18-.84.66.82.47,1.07,6.12.84,13.43-.94,5.22.61,13.72.35,22.2-.83-3.43-1.49-7.82-1.82-12.98-.42,5.31.02,5.92-.39,11.25.61,2.57,1.56,4.41,1.93,11.35l-.61.38c.31,6.28,1.21,6.28,1.04,14.3-.3,13.7-.3,27.81-.38,38.27l-.61.4c1.3,5.82.48,19.41,1.06,27.24-.59,13.33.58,28.96-.46,35.8.07,4.25.14,8.43.21,12.27-10.49.16-20.55.31-30.76.46-9.53.1-19.19.13-29.55.03l4.09-.88c-4.36.65-2.83-.51-7.11-.38,4.92.71-5.94.92-8.96,1.46-10.86-.69-24.8.06-34.42.68l-.38-.61c-9.72,1.14-21.34.14-33.45-.05-1.39-.25-3.58-.82-7.19-.76-6.57.98-10.01.92-19.65,1.53-7.04,0-18.47-.24-25.62-.63-26.48,1.38-53.53.5-81.04,1.33l-1.99-.71c-26.69,1.53-59.51.14-82.29.92l2.2-1.22c-7.13-.38-16.28.32-14.46,1.19-7.17-.37-17.87.59-22.41-.41-7.33-.22-8.96.56-15.04.73-14.66-.46-20.1-.36-33.91-.13l3.42.08c1.52-.27,1.65-.79-1.79-.87-5.15.34-18.95-.33-13.82,1.13-14.75-.85-34.4.69-48.75-.45,1.23.4-2.39.48-3.93.74-12.93.02-26.54-.79-36.86-.12-2.07-.2,3.27-.68-1.99-.72-3.12.15-.08.52-3.91.74-20.96.74-42.45-.77-61.52-.57-33.89.77-69.24.38-101.7.51l.37-.29c-10.88,1.12-25.51-1.15-34.19.54-2.57-.28-9.81-.13-7.91-.69-4.33.39-10.39.21-16.93.05-3.27-.08-6.66-.15-10.02-.14-1.68,0-3.35.03-4.99.09-1.26.04-2.51.07-3.74.11-1.42.05-2.83.11-4.21.16,1.99.03,3.19-.03,5.52-.16-3.21-.1-6.29-.16-9.25-.2.02-2.24.03-4.45.05-6.66,0-1.89,0-3.78,0-5.66-.03-2.57-.05-5.14-.08-7.73-.05-5.18-.07-10.47.18-16.16.13,1.36.22,3.82.51,4.21.56-5.15-1.24-12.21.18-15.04-.01-2.95-.71-2.1-.67-.29.55-29.21-.35-60.4-.67-90.8.85-21.79,2.38-1.33,1.32-18.52.27-1.4-.54-1.01-.25-1.26-.39-6.65,1.58-10.35.84-14.97-.87,1.9-.48-3.07-1.01-3.21.56-13.32,1.35-15.99.69-26.51l.46.79c-.53-5.07-.73-10.46-.88-15.78-.08-2.66-.15-5.3-.23-7.86-.13-3.47-.25-6.84-.37-10.05,1.49-.94,2.93-1.85,4.33-2.73.36-.23.71-.46,1.07-.69l.61-.44c.39-.29.77-.57,1.14-.85,59.12-33.53,115.5-66.16,173.19-98.77,57.24-31.84,112.82-63.84,171.19-95.73,14.18-6.59,15.18-7.19,29.86-16-.5.51-1.42,1.07-.34.67.27-1.28,10.47-5.98,11.43-7.6,2.66-1.48,5.3-2.95,7.78-4.33,5.87,3.31,11.64,6.56,17.39,9.8,4.81,2.68,9.59,5.35,14.39,8.03,9.61,5.36,19.3,10.76,29.48,16.44-3.54-1.87-5.68-2.15-1.51.12l4.65,1.89.57.63c2.9,1.46,6.23,2.78,3.46.86,55.83,30.39,109.37,62.75,163.76,93.03,12.69,7.6,31.21,17.58,45.32,25.27,40.86,24.47,77.75,46.41,120.36,69.3,0,0-6.75-.88-24.44-10.14Z"/>
        <path class="cls-4" d="M906.55,294.12c-.49,1.7-.76,7.23-1.42,2.82.46-.55.98-3.4,1.42-2.82Z"/>
        <path class="cls-4" d="M901.48,441.94c.14.19-.2,2.11-.28,2.58-.04-1.82-.45-3.53-.2-4.98.04,1.84.27,1.56.48,2.4Z"/>
        <path class="cls-4" d="M901.19,479.74c-.44-.56-.79-8.65-.84-13.43l.84,13.43Z"/>
        <path class="cls-4" d="M897.64,502.33c-1.53-.18-2.08-.33-1.73-.42.17-.05.57-.08,1.18-.11.33,0,.77-.02,1.32-.03.04.12.03.2-.01.29-.02.04-.05.08-.08.13-.21.04-.47.09-.67.14Z"/>
        <path class="cls-4" d="M895.14,503.33c-2.93.01-4.38-.25-5.8-.5.12.38,6.78-.24,5.8.5Z"/>
        <path class="cls-4" d="M818.68,502.06c-1.84.04-5.81.4-7.53-.09,1.93.34,8.95-.56,7.53.09Z"/>
        <path class="cls-4" d="M783.16,502.72c-1.15-.03-1.62-.11-2.96.01-2.1-.2.12-.52,1.9-.56l1.05.55Z"/>
        <polygon class="cls-4" points="136.36 504.48 140.2 504.26 139.62 504.7 136.36 504.48"/>
        <path class="cls-4" d="M142.72,266.62c3.21-2.12,2.53-.95,3.12-1.21-3,1.74.85-1.1-3.12,1.21Z"/>
        <polygon class="cls-4" points="274.88 189.85 273.88 190.43 273.78 189.46 274.88 189.85"/>
      </g>
      <rect class="cls-8" x="29.1" y="399.93" width="961.8" height="192.28"/>
      <g>
        <path class="cls-7" d="M976.93,594.64c8.55-.3-4.6-1.15,5.59-.51-1.16.53-2.81.93-5.59.51Z"/>
        <path class="cls-7" d="M984.39,566.64c-3.81-24.8.04-57.47-2.39-84.65-.16-3.18,2.08.83,1.58-6.36-1.12-10.03-1.56-22.26-1.55-35.33,0-6.54-2.24-9.69-2.03-16.47.28-6.98.55-14.01.83-20.9-4.88-.21-9.7-.42-14.42-.63-4.5-.24-9.15.74-13.39.51l2.16-.53c-6.79-.38-12.71-2.22-19.9-2.47-.06-.35,2.3-.5.63-.98-1.81,1.06-12.99.49-16.04,1.28-2.84-.42-2.56-1.25-6.23-1.72l-4.12,1.21c-11.44,2.87-27.52-1.42-43.12.06.75-.28,2.29-.5,1.05-.77-25.06,1.74-56.41,1.42-84.43,2.06,1.12-.43,2.15-1.21.51-1.68-1.38,1.27-10.04,1.59-17.54,1.84-3.39-1.31-12.88,1.19-21.69.47l.75-.29c-6.51,1.37-9.66-.79-14.94.85l-4.13-1.03c-2.86,1.84-9.42-.95-14.8-.02l.17.38c-5.07.45-7.72-.48-12.42-.17l-.45-.22c-11.02.49-17.43-.54-17.16.9-3.86-1.15,10.68-.52,4.62-2.2-103.23,4.21-207.42,1.06-310.82,1.39-1.35,0-3.07-.22-3.44-1.39-.36-1.18,2.53-1.42,1.9-.34-1.5.6-3.64-.7-3.12-2.11.51-1.4,3.6-.5,2.81.8-26.77,1.74-53.54,3.48-80.31,5.23-1.16.07-2.55.05-3.16-.84-.62-.88,1.09-2.21,1.59-1.27-6.57-.13-13.15-.26-19.72-.39-1.38-.03-3.14.19-3.5,1.39-.36,1.2,2.64,1.3,1.87.26-14.49.67-28.98,1.33-43.47,2,1.65-.34,3.3-.69,4.95-1.03-36.38.38-73.66,2.89-109.74,2.33l1.24-1.03c-2.9-.61-10.64.09-11.17-.79-6.78,1.24,26.11-1.06,16.94-.1-2.37-.86-12.77,1.63-10.8.24-6.38.04-12.56,1.19-18.65.23,1.77.17,5.18-1.42.02-1.35-9.06.18-2.58.49-9.92.83l-4.61.42c-.31,1-8.1-.13-4.73.98-1.11-.83-13.18.51-12.25-1.15l1.26-1.3c-3.92.1-6.42,1.37-9.5,1.95-.51-.12-1.54-.38-1.34-.6-.63,2-9.36-.17-14.01,1.38-1.39-.1-2.97-.21-4.59-.32-1.12-.04-2.27-.08-3.36-.12-.09,2.01-.25,3.58-.96,4.82.67,5.69,1.47,10.88.99,17.37-.21-1.29-.27-3.06-.74-3.43,1.47,1.14-.67,16.37-.63,18.3.21,9.87.82,19.75,1.24,29.61-.41-1.65-.82-3.31-1.23-4.96.45,28.81.9,57.63,1.35,86.44-.37-1.85-.74-3.71-1.11-5.56.21,8.48.42,16.97.62,25.46.06,2.48-1.34,11.84.33,13.6,2.42,2.54,2.07.69,5.49,1.54.53.13,1.23.31,1.93.48,1.41.35,2.81.7,2.81.7-4.09-1.02,3.81-.67,5.98-.95l-2.17.27c.86.47,6.2.18,8.9.04-.63-.69-6.09-.97-9.07-1.17,9.9.67,20.69-.37,30.71-.48-2.01.17-4.01.35-6.02.52,4.19.36,8.39.46,12.59.56,55.27-.61,110.53-1.96,165.8-1.96,68.4-.25,136.8-.49,205.21-.74-2.47.62-4.35,2.79-4.42,5.1,34.44-5.8,69.74-7.41,104.66-4.79-.86,1.77-4.06-.73-2.86-2.33,1.21-1.6,3.8-1.52,5.93-1.28,35.34,4.01,71.15,4.73,106.65,2.13,3.13-.23,7.19.04,8.14,2.74.95,2.7-5.92,2.95-4.09.65,13.01-1.55,26.01-3.11,39.01-4.66-2.91.7-5.82,1.41-8.73,2.11,17.08-.22,34.16-.44,51.23-.66-10.94,1.13-21.88,2.27-32.82,3.4,79.49,0,158.98,1.29,238.43,3.9-5.69.83-11.37,1.65-17.06,2.48,2.06-1.33.08-4.63-2.46-4.76-2.53-.14-4.69,1.55-6.53,3.13,1.57-1.17,5.16-1.19,4.38.51-.34.75-1.43.88-2.32.9-17.34.33-34.67.66-52.01.99,4.29-.34,8.59-.68,12.88-1.02-36.21,2.9-73.91.62-110.27.92-37.51.31-75.01.62-112.52.94-75.01.62-150.03,1.25-225.04,1.88-62.74.52-125.72-.17-188.38,1.26l3.7.11c1.64-.4,1.79-1.18-1.93-1.29-5.56.51-20.49-.49-14.94,1.69-15.94-1.26-37.19,1.03-52.7-.67,1.32.6-2.59.71-4.24,1.11-13.99.03-28.69-1.19-39.86-.17-2.23-.3,3.54-1.01-2.15-1.08-3.37.22-.08.78-4.23,1.11-22.66,1.11-45.89-1.15-66.5-.86-7.71.24-15.48.41-23.28.52l-11.71.13-20.1.07c-.02-21.95-.04-43.76-.05-64.5l.48.36c-1.86-10.59,1.91-24.83-.9-33.28.47-2.5.22-9.56,1.16-7.7-1.31-8.43,1.24-23.6-.43-35.79-.05,1.12.05,1.76.27,3.05,1.07-12.3-.4-23.16.57-36.15.21,1.32.36,3.71.85,4.1.93-5.01-2.06-11.89.29-14.64-.02-2.87-1.18-2.05-1.11-.28l.1-3.71c.03-1.71.06-3.43.08-5.16.03-4.1.06-8.24.09-12.42h16.48c132.11,0,264.43-2.74,396.34-3.21,70.81.42,140.13-.58,212.04.6,16.85,1.8,18.11,1.75,36.61,1.02-.74.29-1.91.36-.67.63.93-1.47,13.03-.14,14.8-1.54,26.59.28,51.07-.13,78.42-.14-4.32.16-6.49,1.36-1.36,1.26l5.38-.94.87.41c3.51-.22,7.35-.94,3.72-1.41,33.12-.61,65.97-.25,98.66.26,16.34.25,32.65.5,48.91.76,8.14.09,16.27.17,24.38.26,11.18.02,22.35.05,33.51.07.01,4.05.02,8.09.03,12.13-.09,4.42-.19,9.31-.29,14.46.02,4.19.03,8.59.05,13.02.18,8.87.36,17.9.52,25.72-2.18,46.35-3.94,88.12-2.41,135.2,0,0-4.22-6.14-5.2-25.58Z"/>
        <path class="cls-7" d="M966.65,594.79c-1.83-.74-7.82-1.14-3.05-2.12.59.69,3.68,1.46,3.05,2.12Z"/>
        <path class="cls-7" d="M806.84,587.22c-.21.22-2.27-.3-2.78-.42,1.97-.05,3.81-.68,5.38-.29-2,.06-1.69.4-2.6.71Z"/>
        <path class="cls-7" d="M765.99,586.78c.61-.66,9.36-1.18,14.52-1.26l-14.52,1.26Z"/>
        <path class="cls-7" d="M727.92,584.08c-3.29-.55-2.38-.86,2.05-.84.32.35-1.14.52-2.05.84Z"/>
        <path class="cls-7" d="M725.21,585.57c-3.16.01-4.73-.37-6.28-.75.13.56,7.33-.35,6.28.75Z"/>
        <path class="cls-7" d="M642.57,583.67c-1.99.05-6.29.6-8.14-.13,2.08.51,9.67-.83,8.14.13Z"/>
        <path class="cls-7" d="M604.15,584.66c-1.24-.04-1.75-.16-3.19.02-2.28-.3.12-.78,2.05-.84l1.14.82Z"/>
        <polygon class="cls-7" points="36.05 479.09 36.4 482.83 35.68 482.27 36.05 479.09"/>
        <path class="cls-7" d="M249.06,404.83c4.15-.41,2.89.61,3.58.71-3.75.07,1.38-.81-3.58-.71Z"/>
        <polygon class="cls-7" points="414.26 401.56 413.01 401.57 413.44 400.24 414.26 401.56"/>
      </g>
      <g>
        <path class="cls-5" d="M506.86,178.61c-177.07,0-321.1,144.06-321.1,321.1s144.04,321.1,321.1,321.1,321.1-144.04,321.1-321.1-144.04-321.1-321.1-321.1M506.86,740.54c-132.8,0-240.83-108.03-240.83-240.83s108.03-240.83,240.83-240.83,240.83,108.03,240.83,240.83-108.03,240.83-240.83,240.83M607.47,365.26l-163.58,54.54c-8,2.67-14.27,8.94-16.93,16.93l-54.51,163.58c-9.36,27.91,5.91,43.17,33.81,33.87l163.64-54.56c7.94-2.67,14.21-8.94,16.88-16.93l54.56-163.58c9.3-27.91-5.96-43.14-33.87-33.84M535.24,528.09c-15.68,15.68-41.08,15.68-56.76,0-15.68-15.68-15.68-41.08,0-56.75,15.68-15.68,41.08-15.68,56.76,0,15.68,15.68,15.68,41.08,0,56.75"/>
        <g>
          <path class="cls-6" d="M535.24,528.09c-4.46,2.62-8.37,4.01-12.35,5.23-4,1.17-8.17,2.16-13.58,2.5-.46.02-.99.04-1.62.07-.63.06-1.37.02-2.25-.04-.87-.07-1.89-.02-3.05-.25-1.17-.18-2.51-.31-4-.74-2.82-.59-5.98-1.84-9.21-3.61-3.25-1.74-6.42-4.31-9.22-7.41-2.8-3.1-5.15-6.79-6.75-10.8-1.63-4-2.42-8.31-2.52-12.43-.1-4.13.53-8.07,1.54-11.52.3-.85.59-1.68.87-2.48.12-.41.29-.79.48-1.17.17-.38.35-.74.52-1.11.61-1.49,1.44-2.74,2.12-3.92,1.48-2.3,2.87-4.04,3.95-5.14.52-.57.9-1.03,1.2-1.31.3-.27.46-.41.46-.41,0,0,.53-.48,1.5-1.35.25-.21.5-.48.81-.72.32-.23.67-.49,1.04-.76.37-.27.77-.57,1.19-.88.41-.33.88-.62,1.39-.91,1.02-.56,2.07-1.32,3.35-1.84.63-.29,1.27-.59,1.94-.9.68-.28,1.41-.5,2.14-.77,1.45-.59,3.08-.86,4.73-1.3,1.69-.22,3.44-.58,5.26-.58,3.63-.16,7.52.14,11.27,1.24,3.76,1.05,7.41,2.73,10.67,4.9,3.27,2.17,6.02,4.96,8.31,7.8.54.74,1.08,1.47,1.61,2.18.47.75.9,1.52,1.35,2.26.21.37.46.73.64,1.11.18.38.35.76.53,1.14.33.76.73,1.47.99,2.21,2.89,7.78,2.65,13.12,2.44,15.74-.35,5.4-1.34,9.58-2.5,13.58-1.22,3.99-2.62,7.89-5.23,12.35,4.39-2.7,7.73-5.89,10.4-9.89,2.62-4.01,4.64-8.95,5.12-15.52.04-.81.09-1.81.15-3-.06-1.2-.12-2.59-.19-4.2-.42-3.18-.99-7.26-2.87-11.95-.33-.9-.79-1.78-1.2-2.7-.21-.46-.43-.92-.65-1.39-.22-.47-.51-.9-.77-1.36-.54-.9-1.07-1.83-1.65-2.75-.64-.87-1.29-1.76-1.95-2.66-2.78-3.47-6.13-6.82-10.11-9.48-3.97-2.65-8.41-4.69-13-5.96-4.58-1.32-9.3-1.7-13.71-1.5-2.22.02-4.34.44-6.4.73-2.01.52-3.98.87-5.75,1.58-.89.32-1.77.6-2.6.94-.81.38-1.6.74-2.36,1.1-1.55.65-2.84,1.55-4.08,2.25-.62.35-1.19.71-1.69,1.1-.51.38-1,.73-1.45,1.07-.45.33-.87.65-1.26.93-.38.29-.69.61-.99.86-1.17,1.06-1.81,1.64-1.81,1.64,0,0-.19.17-.56.5-.36.34-.83.89-1.46,1.58-1.29,1.34-3,3.45-4.8,6.24-.84,1.44-1.84,2.97-2.6,4.77-.21.44-.41.89-.63,1.35-.22.45-.42.92-.58,1.42-.34.98-.7,1.99-1.06,3.02-1.24,4.2-2.01,8.98-1.89,14,.12,5.01,1.08,10.25,3.05,15.12,1.94,4.89,4.81,9.4,8.21,13.16,3.39,3.76,7.25,6.87,11.21,9,3.93,2.16,7.8,3.65,11.22,4.38,1.82.51,3.45.68,4.87.89,1.42.25,2.65.22,3.71.29,1.06.06,1.96.09,2.73.03.77-.04,1.41-.07,1.97-.1,6.57-.48,11.51-2.5,15.52-5.12,4-2.67,7.18-6.01,9.89-10.4Z"/>
          <path class="cls-6" d="M607.47,365.26c-10.29.8-17.17,1.68-28.55,5.41-8.04,2.68-24.14,8.03-43.77,14.56-23.33,7.78-48.75,16.25-74.93,24.98-3.27,1.09-6.56,2.19-9.85,3.28-1.65.55-3.29,1.1-4.95,1.65l-2.48.83c-.85.3-1.87.64-2.76,1.05-7.38,3.13-13.39,9.33-16.36,16.8l-.52,1.41c-.17.48-.29.85-.43,1.28l-.83,2.49-1.66,4.99c-1.11,3.32-2.21,6.64-3.32,9.96-2.21,6.64-4.42,13.25-6.61,19.84-8.77,26.33-17.34,52.06-25.26,75.84-3.96,11.89-7.76,23.3-11.34,34.05-1.79,5.38-3.53,10.6-5.2,15.63-1.74,5.32-2.89,10.76-2.86,16.23,0,2.73.31,5.45,1.01,8.09.7,2.63,1.82,5.17,3.37,7.39,1.54,2.23,3.49,4.11,5.6,5.53,2.12,1.44,4.39,2.4,6.59,3.04,2.21.64,4.38,1,6.44,1.11,1.04.1,2.03.06,3.02.08.98-.03,1.93-.08,2.86-.15,3.7-.34,6.98-1.05,9.84-1.86,2.92-.86,5.2-1.67,7.27-2.35,2.05-.69,3.8-1.27,5.21-1.74,2.82-.94,4.32-1.44,4.32-1.44,0,0,23.94-7.98,61.04-20.34,18.55-6.18,40.39-13.46,64.18-21.39,5.95-1.98,12.01-4,18.18-6.06,1.54-.51,3.09-1.03,4.64-1.55l1.17-.39.58-.19.66-.24c.9-.31,1.76-.69,2.62-1.08,3.42-1.63,6.58-3.87,9.21-6.67,2.66-2.77,4.75-6.09,6.22-9.68.74-1.92,1.18-3.39,1.74-5.04.54-1.61,1.08-3.23,1.62-4.85,2.16-6.49,4.35-13.03,6.54-19.61,8.78-26.32,17.76-53.24,26.49-79.42,4.36-13.09,8.67-25.98,12.85-38.53,2.09-6.29,4.15-12.48,6.18-18.57,1.04-3.23,1.86-6.54,2.32-9.93.09-.85.18-1.71.27-2.56.04-.86.11-1.72.12-2.58-.02-.87.02-1.73-.06-2.6l-.1-1.31-.03-.4v-.11c-.27-2.24-.77-4.4-1.46-6.38-.7-1.98-1.67-3.76-2.67-5.29-2.12-3.04-4.56-4.92-6.21-5.95-3.1-1.93-6.22-2.81-9.02-3.14-2.82-.33-5.37-.13-7.75.31-4.76.89-8.84,2.82-13.22,5.53,5.15-.35,9.35-.28,13.49.18,4.09.49,8.31,1.19,12.31,3.7,1.07.69,2.57,1.86,3.92,3.79.63,1,1.27,2.14,1.75,3.51.47,1.37.84,2.92,1.03,4.61v.08s.03.31.03.31l.07,1c.07.67.02,1.36.05,2.04,0,.69-.07,1.39-.09,2.08-.07.7-.15,1.41-.22,2.11-.38,2.83-1.09,5.71-2.01,8.57-2.02,6.06-4.07,12.23-6.15,18.49-4.18,12.54-8.49,25.44-12.85,38.53-8.73,26.17-17.71,53.09-26.49,79.42-2.19,6.58-4.38,13.12-6.54,19.61-.54,1.62-1.08,3.24-1.62,4.85-.53,1.58-1.09,3.35-1.58,4.59-1.1,2.67-2.65,5.15-4.64,7.21-1.96,2.09-4.31,3.75-6.85,4.97-.65.28-1.29.57-1.95.8l-.49.18-.58.19-1.17.39c-1.55.52-3.1,1.03-4.64,1.55-6.17,2.06-12.23,4.08-18.18,6.06-23.78,7.93-45.62,15.22-64.17,21.4-37.1,12.38-61.03,20.36-61.03,20.36,0,0-1.5.5-4.32,1.44-1.41.47-3.16,1.05-5.21,1.74-2.05.68-4.47,1.52-6.93,2.24-2.52.71-5.34,1.32-8.39,1.6-.76.06-1.53.1-2.32.12-.78-.02-1.58.02-2.37-.07-1.6-.08-3.2-.37-4.76-.82-3.14-.88-6.01-2.68-7.97-5.53-1.99-2.83-3-6.75-2.99-11.07-.03-4.33.92-9.01,2.47-13.75,1.67-5.02,3.41-10.23,5.2-15.6,3.58-10.75,7.39-22.16,11.35-34.05,7.93-23.79,16.5-49.51,25.28-75.84,2.19-6.58,4.4-13.2,6.61-19.84,1.11-3.32,2.21-6.64,3.32-9.96l1.66-4.99.83-2.49c.14-.4.28-.87.41-1.21l.38-1.05c2.21-5.56,6.68-10.17,12.17-12.5.34-.15.68-.3,1.03-.42.37-.13.65-.25,1.09-.39l2.48-.83c1.65-.55,3.3-1.1,4.95-1.65,3.29-1.1,6.58-2.19,9.85-3.28,26.17-8.73,51.6-17.2,74.93-24.98,19.62-6.55,35.71-11.93,43.75-14.61,11.35-3.85,17.37-7.28,26.09-12.81Z"/>
          <path class="cls-6" d="M506.86,740.54c-2.5-.69-4.79-1.3-6.99-1.83-1.1-.27-2.18-.51-3.26-.74-1.08-.23-2.16-.42-3.24-.7-2.17-.5-4.4-.92-6.82-1.28-1.21-.18-2.47-.34-3.79-.49-1.32-.21-2.7-.42-4.16-.61-1.58-.21-3.96-.51-6.91-.9-1.48-.18-3.07-.53-4.79-.82-1.83-.33-3.67-.66-5.53-.99-2.48-.38-4.92-1.05-7.41-1.6-1.24-.29-2.49-.57-3.73-.86-1.25-.3-2.51-.55-3.75-.93-2.49-.71-4.99-1.42-7.51-2.14-2.54-.66-5.01-1.58-7.53-2.42-1.26-.43-2.52-.85-3.78-1.28-1.27-.42-2.54-.85-3.78-1.37-2.5-.99-5.02-1.98-7.55-2.98-1.28-.48-2.52-1.04-3.76-1.61-1.25-.57-2.5-1.13-3.75-1.7-1.25-.57-2.51-1.14-3.77-1.71-1.27-.56-2.48-1.25-3.72-1.86-2.48-1.27-4.97-2.55-7.47-3.84-4.86-2.83-9.86-5.54-14.63-8.75-4.89-3-9.53-6.48-14.29-9.86-2.29-1.8-4.6-3.61-6.91-5.43l-1.74-1.36-1.67-1.45c-1.12-.97-2.23-1.93-3.35-2.91-17.93-15.51-33.8-34.36-46.79-55.39-6.38-10.59-12.02-21.72-16.81-33.26-4.85-11.52-8.54-23.56-11.43-35.77-1.54-6.09-2.53-12.3-3.61-18.48l-1.19-9.34c-.09-.78-.22-1.55-.28-2.34l-.18-2.35-.36-4.69c-.83-12.5-.9-25.05.29-37.43.14-1.55.18-3.1.41-4.64l.59-4.61c.41-3.07.71-6.15,1.33-9.18.56-3.04,1.06-6.08,1.65-9.1.69-3,1.39-5.99,2.08-8.97,3.02-11.87,6.82-23.43,11.44-34.5,4.72-11.02,10.16-21.57,16.17-31.55,6.12-9.92,12.86-19.21,19.97-27.92,7.22-8.61,14.87-16.55,22.74-23.84,2-1.79,4.04-3.51,6.03-5.26,1-.87,2-1.73,3-2.59,1.03-.81,2.07-1.62,3.09-2.43,2.06-1.61,4.08-3.24,6.13-4.8,2.1-1.49,4.18-2.98,6.25-4.45,1.04-.73,2.05-1.49,3.1-2.18,1.06-.68,2.12-1.36,3.17-2.03,2.11-1.35,4.19-2.68,6.27-4.01,2.13-1.23,4.25-2.44,6.34-3.65,1.05-.6,2.09-1.2,3.13-1.8,1.05-.57,2.12-1.1,3.18-1.64,2.11-1.08,4.21-2.16,6.28-3.22,2.08-1.06,4.21-1.94,6.28-2.9,2.09-.92,4.12-1.93,6.2-2.75,2.08-.82,4.14-1.64,6.18-2.44,16.34-6.33,31.91-10.23,45.81-12.52,3.46-.7,6.86-1,10.11-1.45,1.63-.21,3.23-.41,4.8-.61,1.58-.12,3.12-.24,4.64-.35,1.51-.12,3-.23,4.45-.34,1.45-.1,2.87-.26,4.26-.26,2.78-.07,5.42-.14,7.93-.2,1.25-.02,2.47-.1,3.66-.06,1.18.03,2.34.06,3.45.09,2.23.06,4.32.11,6.26.16,1.94,0,3.73.21,5.37.32,1.64.12,3.12.24,4.45.34,1.33.1,2.5.19,3.52.27,1.01.08,1.85.22,2.54.3,1.36.17,2.06.26,2.06.26,0,0,2.8.36,8.09,1.05,2.63.47,5.87,1.05,9.69,1.74,1.92.29,3.93.86,6.11,1.33,2.17.5,4.48,1.04,6.93,1.6,9.67,2.64,21.39,6.23,34.34,11.79,12.95,5.55,27.13,13.08,41.49,23.12,1.78,1.27,3.59,2.55,5.41,3.85.92.63,1.82,1.32,2.7,2.03.89.7,1.78,1.4,2.68,2.11,1.79,1.43,3.64,2.81,5.42,4.31,1.76,1.53,3.54,3.07,5.33,4.62.9.78,1.8,1.56,2.7,2.34.87.83,1.74,1.66,2.61,2.49,1.75,1.67,3.52,3.35,5.3,5.05,1.72,1.75,3.42,3.57,5.15,5.37.86.9,1.73,1.81,2.6,2.72.87.91,1.66,1.9,2.5,2.85,1.66,1.92,3.34,3.85,5.03,5.8,1.63,2,3.21,4.06,4.83,6.11.81,1.03,1.62,2.06,2.43,3.09.76,1.07,1.53,2.15,2.3,3.22,1.53,2.16,3.1,4.32,4.62,6.53,2.86,4.54,5.94,9.02,8.58,13.85.69,1.19,1.37,2.39,2.06,3.58l1.03,1.8.95,1.85c1.27,2.47,2.54,4.96,3.82,7.46,1.24,2.52,2.34,5.12,3.53,7.69.58,1.29,1.16,2.59,1.75,3.89.52,1.33,1.05,2.65,1.57,3.99.53,1.33,1.05,2.67,1.58,4,.53,1.34,1.08,2.67,1.51,4.05.93,2.74,1.86,5.48,2.79,8.24,3.43,11.13,6.29,22.65,8.16,34.49,1.77,11.86,2.84,23.98,2.91,36.24-.04,12.26-.91,24.61-2.71,36.92-1.97,12.28-4.84,24.47-8.64,36.42l-3.02,8.91-3.46,8.75-.87,2.19-.97,2.14-1.94,4.29c-.66,1.43-1.28,2.87-1.96,4.28l-2.15,4.19c-11.28,22.46-26.47,42.79-43.84,60.36-17.59,17.37-37.45,31.96-58.53,42.79-1.32.68-2.63,1.35-3.95,2.02l-1.97,1.01c-.66.33-1.34.61-2,.92-2.68,1.21-5.35,2.42-8,3.62-2.68,1.15-5.41,2.16-8.09,3.24-1.35.52-2.68,1.09-4.04,1.56-1.36.46-2.73.92-4.08,1.38-1.36.46-2.71.92-4.06,1.38l-2.02.69c-.68.21-1.37.39-2.05.59-2.73.78-5.45,1.55-8.16,2.32-1.34.42-2.73.68-4.09,1.01-1.36.32-2.72.63-4.08.94-1.36.31-2.71.63-4.06.94-.67.17-1.36.26-2.04.39l-.68.12c-3.84.67-7.32,1.36-10.25,1.8-2.95.38-5.32.69-6.91.9-1.46.19-2.84.4-4.16.61-1.32.15-2.58.31-3.79.49-2.42.36-4.65.78-6.82,1.28-1.09.27-2.16.47-3.24.7-1.08.23-2.16.48-3.26.74-2.2.53-4.49,1.14-6.99,1.83,2.5.56,4.82,1.05,7.08,1.47,1.13.21,2.25.4,3.36.58,1.12.17,2.23.34,3.37.4,2.26.16,4.59.23,7.12.21,1.26,0,2.57-.04,3.95-.1,1.37-.12,2.8-.28,4.31-.46,1.64-.2,4.09-.51,7.14-.89,3.04-.45,6.63-1.15,10.6-1.84l.7-.13c.7-.14,1.41-.23,2.1-.4,1.39-.32,2.79-.65,4.19-.97,1.4-.32,2.81-.65,4.22-.98,1.41-.34,2.83-.61,4.22-1.04,2.8-.8,5.61-1.6,8.43-2.4.7-.21,1.42-.39,2.12-.61l2.09-.71c1.4-.47,2.8-.95,4.2-1.42,1.4-.48,2.81-.95,4.22-1.43,1.41-.48,2.78-1.08,4.17-1.61,2.77-1.11,5.59-2.16,8.36-3.35,2.75-1.24,5.5-2.49,8.27-3.74.69-.32,1.39-.61,2.07-.95l2.03-1.04c1.36-.7,2.72-1.39,4.08-2.09,21.78-11.19,42.3-26.26,60.46-44.21,17.94-18.15,33.63-39.16,45.29-62.36l2.22-4.33c.71-1.46,1.35-2.95,2.03-4.42l2.01-4.43,1-2.22.9-2.26,3.57-9.05c1.04-3.07,2.08-6.14,3.12-9.2,3.92-12.34,6.89-24.95,8.92-37.63,1.86-12.71,2.76-25.48,2.8-38.13-.07-12.66-1.17-25.18-3.01-37.43-1.94-12.24-4.88-24.15-8.44-35.65-.97-2.85-1.93-5.69-2.89-8.52-.45-1.42-1.02-2.8-1.57-4.18-.55-1.38-1.09-2.76-1.63-4.14-.54-1.38-1.09-2.75-1.63-4.12-.6-1.34-1.21-2.68-1.81-4.02-1.23-2.66-2.37-5.35-3.65-7.95-1.32-2.58-2.64-5.15-3.95-7.7l-.98-1.91-1.07-1.86c-.71-1.24-1.42-2.47-2.13-3.7-2.73-4.98-5.91-9.62-8.87-14.31-1.57-2.28-3.19-4.51-4.77-6.74-.8-1.11-1.59-2.22-2.38-3.33-.84-1.07-1.68-2.13-2.51-3.19-1.68-2.12-3.31-4.25-4.99-6.31-1.74-2.01-3.47-4.01-5.19-5.99-.87-.98-1.69-2-2.59-2.94-.9-.94-1.79-1.88-2.68-2.81-1.79-1.86-3.54-3.74-5.32-5.55-1.84-1.75-3.66-3.49-5.47-5.21-.9-.86-1.8-1.72-2.7-2.57-.93-.81-1.87-1.62-2.79-2.42-1.85-1.61-3.69-3.2-5.51-4.77-1.84-1.55-3.75-2.98-5.6-4.45-.93-.73-1.85-1.45-2.77-2.18-.91-.73-1.83-1.44-2.79-2.09-1.88-1.34-3.75-2.67-5.59-3.98-14.84-10.37-29.49-18.14-42.87-23.88-13.39-5.75-25.49-9.46-35.49-12.18-2.52-.58-4.91-1.14-7.16-1.66-2.25-.49-4.33-1.07-6.32-1.38-3.95-.71-7.3-1.31-10.01-1.79-5.46-.71-8.36-1.09-8.36-1.09,0,0-.72-.09-2.13-.27-.7-.08-1.58-.22-2.62-.31-1.05-.08-2.26-.17-3.63-.28-1.37-.1-2.91-.22-4.6-.35-1.69-.11-3.54-.32-5.54-.33-2-.05-4.16-.11-6.46-.16-1.15-.03-2.34-.06-3.56-.09-1.22-.04-2.48.04-3.78.06-2.59.07-5.32.13-8.19.21-1.44,0-2.9.17-4.39.27-1.5.11-3.03.23-4.59.35-1.56.12-3.16.24-4.79.37-1.62.21-3.27.42-4.96.63-3.36.46-6.87.77-10.44,1.5-14.36,2.37-30.45,6.4-47.34,12.93-2.1.83-4.23,1.67-6.38,2.52-2.15.85-4.25,1.89-6.41,2.84-2.14,1-4.35,1.91-6.49,3-2.14,1.1-4.31,2.21-6.49,3.33-1.09.56-2.19,1.11-3.28,1.7-1.07.62-2.15,1.24-3.23,1.86-2.16,1.25-4.35,2.5-6.55,3.77-2.14,1.37-4.3,2.75-6.47,4.14-1.09.7-2.18,1.4-3.27,2.1-1.09.72-2.13,1.5-3.21,2.25-2.14,1.52-4.29,3.05-6.46,4.6-2.12,1.61-4.21,3.29-6.34,4.95-1.06.83-2.13,1.67-3.19,2.51-1.03.89-2.06,1.78-3.1,2.68-2.06,1.8-4.17,3.58-6.23,5.43-8.13,7.54-16.04,15.73-23.49,24.62-7.34,8.99-14.31,18.58-20.63,28.83-6.21,10.31-11.83,21.2-16.71,32.6-4.77,11.44-8.71,23.38-11.83,35.65-.71,3.08-1.43,6.17-2.14,9.27-.61,3.12-1.14,6.26-1.71,9.4-.63,3.13-.95,6.31-1.37,9.49l-.61,4.77c-.23,1.59-.28,3.2-.42,4.79-1.23,12.79-1.16,25.75-.3,38.66l.37,4.84.19,2.42c.06.81.19,1.61.29,2.41l1.23,9.65c1.11,6.39,2.14,12.8,3.73,19.1,2.99,12.61,6.8,25.06,11.81,36.97,4.94,11.93,10.77,23.43,17.36,34.37,13.41,21.73,29.81,41.2,48.33,57.22,1.16,1,2.31,2,3.46,3l1.73,1.49,1.79,1.41c2.39,1.88,4.77,3.75,7.14,5.61,4.91,3.49,9.7,7.08,14.76,10.18,4.92,3.31,10.09,6.11,15.11,9.03,2.58,1.33,5.16,2.65,7.72,3.97,1.29.64,2.54,1.35,3.85,1.92,1.3.59,2.6,1.18,3.9,1.77,1.3.59,2.59,1.17,3.88,1.76,1.29.59,2.57,1.17,3.89,1.67,2.62,1.03,5.22,2.06,7.8,3.08,1.28.53,2.59.98,3.91,1.42,1.31.44,2.61.89,3.91,1.33,2.6.87,5.16,1.81,7.79,2.5,2.6.74,5.19,1.48,7.76,2.21,1.28.39,2.58.66,3.87.96,1.29.3,2.58.6,3.86.89,2.57.57,5.09,1.25,7.66,1.65,1.92.34,3.83.68,5.72,1.02,1.78.3,3.43.65,4.95.83,3.05.38,5.5.69,7.14.89,1.51.18,2.94.34,4.31.46,1.37.06,2.69.09,3.95.1,2.52.02,4.85-.06,7.12-.21,1.13-.06,2.25-.22,3.37-.4,1.12-.17,2.23-.37,3.36-.58,2.26-.42,4.58-.91,7.08-1.47Z"/>
          <path class="cls-6" d="M506.86,178.61c-5.01-1.12-9.26-1.97-13.78-2.51-1.13-.12-2.28-.28-3.45-.32-1.17-.04-2.38-.05-3.64-.04-2.51.02-5.22.13-8.24.34-1.64.13-4.1.25-7.13.68-1.52.19-3.18.4-4.96.63-2.55.32-5.11.65-7.7.98-3.45.56-6.91,1.22-10.4,1.83-1.75.31-3.5.63-5.26.94-1.76.32-3.49.78-5.25,1.17-3.51.81-7.04,1.63-10.6,2.45-3.53.93-7.05,1.98-10.62,2.98-1.78.51-3.56,1.02-5.36,1.53-1.76.59-3.53,1.19-5.31,1.79-3.54,1.22-7.13,2.38-10.7,3.67-3.53,1.39-7.08,2.8-10.65,4.2-3.6,1.33-7.07,3.04-10.61,4.61-3.52,1.62-7.12,3.13-10.58,5-3.49,1.79-6.99,3.59-10.52,5.39-3.43,1.97-6.88,3.96-10.34,5.95-3.51,1.92-6.82,4.19-10.23,6.34-1.7,1.09-3.4,2.18-5.1,3.27-.86.53-1.69,1.11-2.51,1.71l-2.48,1.77c-3.3,2.38-6.67,4.68-9.94,7.15-3.22,2.53-6.45,5.07-9.7,7.62-12.74,10.49-24.93,22.02-36.31,34.53-11.34,12.55-21.72,26.21-31.15,40.6l-3.49,5.44-1.75,2.72c-.56.92-1.08,1.87-1.63,2.8-2.15,3.75-4.31,7.5-6.47,11.25-1.98,3.86-3.96,7.72-5.94,11.58-1.03,1.91-1.91,3.9-2.8,5.89l-2.69,5.95c-7.01,15.93-12.87,32.45-17.31,49.38-4.32,16.95-7.32,34.24-9,51.62-.33,4.35-.66,8.7-.99,13.05-.16,4.35-.24,8.71-.36,13.06-.21,4.35.05,8.69.12,13.03l.17,6.51c0,1.08.1,2.16.18,3.24l.25,3.24.49,6.47.25,3.23.13,1.61.2,1.61c.55,4.28,1.09,8.56,1.63,12.83.22,2.14.7,4.24,1.05,6.36.38,2.11.76,4.22,1.13,6.33l.57,3.16c.19,1.05.37,2.11.63,3.15.48,2.08.96,4.16,1.44,6.24.98,4.15,1.84,8.33,3.09,12.39,1.18,4.08,2.28,8.18,3.53,12.21,1.36,4,2.71,7.99,4.06,11.97.63,2,1.44,3.94,2.21,5.89.77,1.95,1.54,3.89,2.31,5.84.78,1.94,1.5,3.89,2.33,5.8.86,1.9,1.72,3.79,2.57,5.68.86,1.89,1.71,3.78,2.56,5.66.43.94.83,1.89,1.3,2.81l1.41,2.75c1.88,3.67,3.76,7.32,5.63,10.96,2.04,3.54,4.07,7.08,6.1,10.59l1.52,2.63c.52.87,1.08,1.71,1.62,2.56,1.09,1.7,2.18,3.4,3.27,5.09,1.09,1.69,2.17,3.38,3.25,5.07,1.09,1.68,2.3,3.27,3.44,4.91,1.16,1.62,2.31,3.25,3.46,4.86l1.72,2.42c.57.81,1.15,1.61,1.77,2.38,2.44,3.11,4.87,6.2,7.29,9.27.61.76,1.19,1.55,1.83,2.29l1.91,2.21c1.27,1.47,2.54,2.94,3.81,4.4,1.27,1.46,2.53,2.92,3.79,4.38,1.28,1.43,2.64,2.79,3.95,4.19,2.66,2.76,5.24,5.56,7.91,8.23,2.74,2.61,5.46,5.21,8.17,7.79,11.03,10.08,22.26,19.43,33.91,27.46,23.03,16.46,46.95,28.52,69.66,37.4,22.75,8.86,44.44,14.33,63.8,17.51,1.21.22,2.41.43,3.59.64,1.19.2,2.38.32,3.56.48,2.35.3,4.66.59,6.93.88,2.27.28,4.49.59,6.68.83,2.2.17,4.35.33,6.46.49,2.11.16,4.17.32,6.19.47,1.01.08,2.01.15,2.99.23.99.07,1.97.06,2.93.1,3.87.1,7.55.19,11.04.28,3.49.17,6.79-.05,9.9-.09,3.1-.08,6.01-.15,8.71-.22,5.4-.29,9.97-.73,13.67-.98,1.85-.16,3.49-.22,4.89-.42,1.4-.18,2.58-.33,3.53-.45,1.9-.24,2.87-.37,2.87-.37,0,0,.98-.12,2.87-.37.95-.12,2.13-.27,3.53-.45.7-.09,1.46-.19,2.27-.29.81-.11,1.67-.29,2.58-.45,3.66-.65,8.17-1.46,13.5-2.42,2.63-.61,5.47-1.26,8.5-1.95,1.51-.35,3.07-.71,4.68-1.08.8-.19,1.62-.38,2.45-.57.82-.2,1.65-.46,2.49-.69,3.36-.96,6.9-1.96,10.63-3.02.93-.27,1.87-.52,2.82-.82.94-.32,1.89-.64,2.85-.96,1.92-.65,3.88-1.31,5.88-1.99,2-.68,4.05-1.37,6.13-2.08,2.05-.81,4.14-1.63,6.27-2.47,4.25-1.7,8.71-3.34,13.14-5.46,17.95-7.92,37.59-18.61,57.45-32.8,10.02-6.97,19.82-15.15,29.75-23.88,2.4-2.28,4.82-4.58,7.25-6.9,1.22-1.16,2.44-2.33,3.67-3.5,1.22-1.18,2.36-2.45,3.56-3.68,2.36-2.48,4.75-4.98,7.15-7.5,2.34-2.57,4.6-5.27,6.93-7.93,1.16-1.34,2.32-2.68,3.49-4.02,1.15-1.36,2.22-2.79,3.34-4.2,2.22-2.82,4.45-5.66,6.7-8.53,2.11-2.97,4.24-5.95,6.38-8.96,1.05-1.51,2.18-2.99,3.19-4.55,1-1.56,2.01-3.13,3.02-4.7,1.01-1.57,2.02-3.15,3.04-4.73,1.01-1.58,2.06-3.15,2.97-4.81,1.89-3.28,3.79-6.58,5.7-9.9.99-1.64,1.85-3.36,2.72-5.07.88-1.71,1.76-3.43,2.64-5.15.88-1.72,1.77-3.45,2.66-5.18.86-1.75,1.62-3.54,2.44-5.32,6.72-14.14,12.18-29.2,16.81-44.75.56-1.95,1.11-3.91,1.67-5.87.53-1.97,1.18-3.91,1.59-5.91.92-3.99,1.85-7.99,2.78-12,.51-2,.82-4.04,1.2-6.07.36-2.04.73-4.07,1.1-6.12.36-2.04.72-4.09,1.08-6.14.26-2.06.53-4.13.79-6.2.26-2.07.53-4.15.79-6.22l.4-3.12c.12-1.04.17-2.09.26-3.14.32-4.19.64-8.39.96-12.6.23-4.22.25-8.46.38-12.7.03-2.12.17-4.25.1-6.38-.05-2.13-.11-4.26-.16-6.39-.05-2.13-.11-4.27-.16-6.4-.04-1.07-.03-2.14-.11-3.21l-.24-3.2c-.33-4.27-.66-8.55-.98-12.84-.54-4.27-1.09-8.54-1.63-12.83l-.41-3.21-.56-3.19-1.14-6.39-1.15-6.4-1.46-6.34-1.47-6.35-.74-3.18-.89-3.14c-1.2-4.18-2.39-8.37-3.59-12.56-1.4-4.13-2.8-8.26-4.2-12.4-5.94-16.42-13.17-32.41-21.6-47.74l-6.54-11.37c-2.36-3.68-4.72-7.36-7.07-11.03-.6-.91-1.16-1.85-1.79-2.74l-1.9-2.67-3.79-5.33-1.9-2.66c-.63-.89-1.26-1.78-1.95-2.62l-4.04-5.14-4.03-5.13c-1.33-1.72-2.82-3.31-4.22-4.96l-4.26-4.92-2.13-2.46c-.71-.82-1.48-1.58-2.22-2.37-2.99-3.13-5.98-6.26-8.96-9.39-3.13-2.98-6.25-5.96-9.36-8.93-12.68-11.64-26.16-22.23-40.18-31.69-3.56-2.28-7.11-4.56-10.65-6.83-3.58-2.2-7.26-4.22-10.87-6.33-3.58-2.16-7.33-3.99-11.02-5.89-1.85-.95-3.69-1.89-5.54-2.84-.91-.49-1.85-.93-2.8-1.34l-2.82-1.28c-14.91-7.09-30.28-12.6-45.6-17.12-1.92-.55-3.84-1.09-5.75-1.64-1.92-.53-3.81-1.14-5.75-1.54-3.86-.89-7.7-1.78-11.51-2.66-.96-.21-1.9-.46-2.87-.64l-2.88-.52c-1.92-.34-3.83-.69-5.74-1.03-1.91-.34-3.81-.68-5.71-1.02-.95-.19-1.9-.31-2.86-.43l-.9-.12c-7.96-.99-14.47-1.92-17.76-2.03-3.03-.22-5.73-.33-8.24-.34-1.26,0-2.46,0-3.64.04-1.17.04-2.32.2-3.45.32-4.51.54-8.77,1.39-13.78,2.51,5,1.37,9.15,2.44,13.54,3.21,1.09.2,2.21.34,3.34.55,1.14.21,2.31.41,3.52.59,2.43.36,5.06.66,8.01.9,3.21.13,9.56,1.06,17.33,2.03l.88.11c.93.11,1.86.23,2.79.42,1.85.33,3.71.67,5.57,1,1.86.33,3.73.67,5.6,1l2.81.5c.94.17,1.86.42,2.8.62,3.73.86,7.47,1.73,11.23,2.6,1.89.39,3.74.99,5.61,1.5,1.87.53,3.74,1.06,5.61,1.6,14.95,4.41,29.94,9.78,44.49,16.7l2.75,1.25c.92.41,1.84.83,2.73,1.31,1.8.92,3.6,1.85,5.4,2.77,3.6,1.86,7.26,3.64,10.76,5.75,3.52,2.06,7.11,4.03,10.61,6.18,3.45,2.22,6.92,4.44,10.39,6.67,13.69,9.23,26.83,19.57,39.21,30.93,3.04,2.9,6.09,5.8,9.14,8.71,2.91,3.05,5.82,6.11,8.74,9.17.72.77,1.48,1.51,2.17,2.31l2.08,2.4,4.16,4.8c1.37,1.62,2.82,3.17,4.12,4.84l3.94,5.01,3.94,5.01c.67.82,1.29,1.69,1.9,2.56l1.85,2.6,3.7,5.2,1.85,2.6c.62.86,1.16,1.78,1.75,2.67,2.3,3.59,4.6,7.18,6.9,10.77l6.38,11.09c8.22,14.96,15.28,30.56,21.07,46.58,1.37,4.03,2.73,8.06,4.1,12.09,1.17,4.09,2.34,8.18,3.5,12.26l.87,3.06.72,3.1,1.43,6.19,1.43,6.19,1.12,6.24,1.12,6.23.55,3.11.4,3.14c.53,4.18,1.07,8.35,1.6,12.51.32,4.19.64,8.36.96,12.53l.24,3.13c.08,1.04.07,2.09.1,3.13.05,2.09.11,4.17.16,6.25.05,2.08.11,4.16.16,6.24.07,2.08-.07,4.15-.1,6.22-.13,4.14-.15,8.28-.37,12.4-.31,4.11-.63,8.21-.94,12.3-.09,1.02-.13,2.05-.25,3.06l-.39,3.04c-.26,2.03-.52,4.05-.77,6.07-.26,2.02-.51,4.04-.77,6.05-.35,2-.71,4-1.06,5.99-.36,1.99-.71,3.98-1.07,5.97-.36,1.98-.67,3.98-1.17,5.93-.91,3.92-1.81,7.82-2.71,11.71-.4,1.96-1.04,3.85-1.56,5.77-.54,1.91-1.09,3.82-1.63,5.72-4.52,15.17-9.84,29.87-16.39,43.66-.8,1.73-1.55,3.49-2.38,5.19-.87,1.69-1.73,3.37-2.59,5.06-.86,1.68-1.72,3.36-2.58,5.03-.85,1.67-1.69,3.35-2.66,4.95-1.86,3.24-3.72,6.46-5.56,9.66-.89,1.62-1.91,3.15-2.9,4.7-.99,1.54-1.98,3.08-2.96,4.62-.98,1.54-1.97,3.07-2.95,4.59-.99,1.52-2.08,2.96-3.11,4.44-2.09,2.93-4.16,5.85-6.22,8.74-2.2,2.79-4.38,5.57-6.54,8.32-1.09,1.37-2.14,2.77-3.26,4.1-1.14,1.31-2.27,2.62-3.4,3.93-2.27,2.6-4.47,5.23-6.76,7.74-2.35,2.46-4.67,4.9-6.98,7.32-1.16,1.2-2.28,2.44-3.47,3.59-1.2,1.14-2.39,2.28-3.58,3.42-2.38,2.27-4.74,4.51-7.08,6.74-9.7,8.52-19.26,16.51-29.04,23.31-19.39,13.85-38.55,24.29-56.07,32.01-4.32,2.07-8.67,3.67-12.82,5.33-2.08.82-4.11,1.63-6.11,2.42-2.04.69-4.03,1.37-5.98,2.03-1.95.66-3.87,1.31-5.74,1.95-.94.32-1.86.63-2.78.94-.92.29-1.85.53-2.75.79-3.63,1.03-7.09,2.02-10.37,2.95-.82.23-1.62.48-2.43.68-.81.19-1.6.37-2.39.55-1.57.36-3.09.72-4.57,1.06-2.95.68-5.72,1.32-8.29,1.91-5.19.93-9.6,1.72-13.17,2.36-.89.15-1.73.33-2.52.44-.79.1-1.53.19-2.22.28-1.37.17-2.52.32-3.45.44-1.85.24-2.8.36-2.8.36,0,0-.95.12-2.8.36-.93.12-2.08.26-3.45.44-1.37.19-2.97.25-4.77.41-3.62.25-8.08.68-13.35.96-2.64.07-5.48.14-8.51.21-3.03.04-6.25.26-9.66.09-3.41-.09-7-.18-10.78-.27-.94-.03-1.9-.03-2.86-.09-.96-.07-1.94-.15-2.92-.22-1.97-.15-3.99-.3-6.04-.46-2.06-.16-4.16-.32-6.3-.48-2.14-.23-4.31-.54-6.52-.81-2.21-.28-4.47-.57-6.77-.86-1.15-.16-2.31-.27-3.47-.47-1.16-.21-2.33-.42-3.51-.63-18.89-3.11-40.06-8.44-62.25-17.09-22.16-8.67-45.49-20.43-67.97-36.51-11.37-7.83-22.33-16.97-33.09-26.81-2.64-2.52-5.3-5.05-7.97-7.6-2.61-2.61-5.13-5.35-7.72-8.04-1.28-1.36-2.6-2.69-3.86-4.09-1.23-1.42-2.46-2.84-3.7-4.27-1.24-1.43-2.48-2.86-3.72-4.29l-1.87-2.16c-.62-.72-1.19-1.49-1.78-2.24-2.36-3-4.73-6.02-7.11-9.05-.61-.75-1.18-1.53-1.73-2.32l-1.68-2.37c-1.12-1.58-2.25-3.16-3.38-4.75-1.11-1.6-2.3-3.15-3.36-4.79-1.06-1.65-2.11-3.29-3.17-4.95-1.06-1.65-2.12-3.31-3.19-4.97-.53-.83-1.08-1.65-1.59-2.5l-1.48-2.57c-1.98-3.43-3.96-6.88-5.95-10.34-1.82-3.55-3.65-7.12-5.49-10.69l-1.38-2.69c-.45-.9-.84-1.83-1.26-2.75-.83-1.84-1.67-3.68-2.5-5.52-.84-1.84-1.67-3.69-2.51-5.54-.81-1.86-1.51-3.77-2.27-5.66-.75-1.9-1.5-3.79-2.25-5.69-.75-1.9-1.54-3.79-2.15-5.75-1.32-3.88-2.64-7.78-3.96-11.68-1.22-3.94-2.28-7.93-3.44-11.91-1.22-3.96-2.06-8.04-3.01-12.09-.47-2.03-.94-4.06-1.41-6.09-.26-1.01-.43-2.04-.61-3.07l-.55-3.09c-.37-2.06-.74-4.12-1.11-6.18-.34-2.07-.81-4.12-1.02-6.21-.53-4.16-1.06-8.34-1.59-12.51l-.2-1.57-.12-1.58-.24-3.15-.48-6.32-.24-3.16c-.08-1.05-.17-2.11-.18-3.17l-.16-6.35c-.07-4.24-.33-8.48-.12-12.72.12-4.24.19-8.5.35-12.75.32-4.24.65-8.49.97-12.73,1.64-16.96,4.56-33.83,8.78-50.37,4.33-16.51,10.05-32.63,16.89-48.18l2.63-5.8c.87-1.93,1.73-3.88,2.73-5.74,1.93-3.77,3.87-7.54,5.79-11.3,2.11-3.67,4.21-7.33,6.31-10.98.53-.91,1.04-1.83,1.59-2.73l1.71-2.66,3.41-5.31c9.21-14.05,19.33-27.37,30.4-39.63,11.11-12.21,23-23.47,35.44-33.7,3.17-2.49,6.32-4.97,9.46-7.44,3.19-2.41,6.48-4.65,9.7-6.97l2.42-1.72c.8-.58,1.61-1.15,2.45-1.66,1.66-1.07,3.32-2.13,4.98-3.19,3.32-2.1,6.56-4.32,9.98-6.19,3.38-1.94,6.74-3.88,10.09-5.81,3.44-1.76,6.86-3.52,10.26-5.26,3.37-1.82,6.88-3.29,10.32-4.87,3.46-1.53,6.84-3.2,10.36-4.5,3.48-1.38,6.94-2.74,10.39-4.1,3.48-1.26,6.98-2.39,10.44-3.58,1.73-.58,3.46-1.17,5.18-1.75,1.75-.5,3.49-.99,5.23-1.49,3.48-.97,6.91-2.01,10.36-2.91,3.47-.8,6.92-1.6,10.34-2.39,1.71-.38,3.41-.83,5.12-1.14,1.72-.31,3.43-.61,5.13-.92,3.41-.6,6.78-1.24,10.15-1.79,2.53-.32,5.03-.64,7.52-.96,1.74-.22,3.36-.43,4.84-.62,2.95-.44,5.36-.56,6.96-.7,2.95-.24,5.57-.54,8.01-.9,1.22-.18,2.39-.38,3.52-.59,1.14-.21,2.25-.34,3.34-.55,4.38-.77,8.53-1.83,13.54-3.21Z"/>
        </g>
      </g>
    </g>
  </g>
</svg>